<svg width="796" height="357" viewBox="0 0 796 357" xmlns="http://www.w3.org/2000/svg"><title>Page 1</title><g stroke="#000" fill="#E9E9E9" fill-rule="evenodd" opacity=".138"><path d="M795 289.39c-.9-.232-1.698-.473-2.495-1.534-1.292-.86-.862-2.147-.862-3.437 0-2.15-.43-3.01-.43-4.73 0-.43.43-.86.43-1.29 0-.86-2.154-.43-3.447-.43-7.32 0-11.196 1.71-18.517 1.71-7.32 0-11.63-1.72-18.09-5.58-4.74-3.44-8.19-3.87-13.35-6.87-1.73-1.29-1.73-3.01-3.45-3.87-1.3 1.71-2.59 2.57-5.17 2.57-1.29 0-2.15-.43-3.45-.43-2.16 0-2.59 1.71-3.88 3.43-2.16 2.57-3.88 4.29-7.32 4.29-2.16 0-3.45-1.29-5.17-2.58-1.72-.86-3.02-.86-4.74-1.29-1.29-.86-2.59-1.29-4.31-1.29-2.16 0-3.02 1.29-5.17 2.57-5.17 2.58-8.19 3.86-13.36 6.87-2.15 1.72-3.45 3.43-6.46 3.43h-2.15c-.43 0-1.29-.43-1.72-.43h-6.46c-.43 0-.86 0-1.72.43-2.16.86-3.45 1.29-5.6 1.29h-2.16c-1.72 0-2.15 1.28-3.02 2.57-1.72 2.15-3.44 3.01-3.88 5.58-.43 1.29 0 2.58-1.3 3.44-2.15 1.29-3.87.86-6.46.86-1.73 0-2.59-1.29-4.31-1.72-3.02-.43-5.17-1.29-7.33-3.01-2.16-1.29-3.02-3.43-5.17-3.43-3.88 0-4.74 5.59-8.62 5.59-1.29 0-2.15 0-3.45-.43-.86-.43-1.29-1.29-2.58-1.29-2.16 0-3.02 2.15-3.02 4.29v2.14l-.43 1.72c.43 2.58 2.58 3.01 3.45 5.15-2.59 2.15-3.88 4.29-7.32 4.29-2.16 0-3.02-.43-4.74-.43-1.72 0-2.15 1.29-3.44 1.72-3.02 1.29-4.31 3-7.32 4.29-.87.86-1.3 1.72-2.59 1.72-.86 0-1.29-.43-1.72-.43-4.31-.85-6.89-3-9.48-6.44-.86-1.28-.86-2.57-2.16-3.43-1.3-.43-2.15 0-3.45-.43-2.59-.43-3.88-2.15-6.89-2.15h-2.58c-2.16 0-3.88-1.29-4.31-3.43h-.43l-3.45.86-1.72-.43c-1.72 0-3.02 1.71-5.17 1.71H541c-2.15 0-3.013-.86-4.735-2.15-1.292-.43-1.722-1.72-3.014-1.72-2.58 0-3.44 1.29-5.59 2.15-.86.43-1.29.43-2.15.85-1.29 1.29-1.72 2.58-3.01 3.44-2.58 2.15-3.87 3.43-5.6 6.01-.86 1.29-2.15 0-3.44.86-1.29.43-1.72 1.71-3.44 1.71h-11.2c-1.72 0-3.44 0-4.73.86-2.15 1.71-2.58 4.29-4.74 4.29-1.72 0-2.58-1.72-4.3-1.72h-2.59c-1.72.42-1.72 1.71-3.44 2.57-2.16 1.29-4.31 1.29-5.17 3.44-.86 2.14-1.29 3.43-2.58 5.15-.86.43-.86 1.29-1.29 2.58-1.72 2.14-2.15 3.86-3.44 6.01-1.29 1.71-1.72 3.43-3.44 3.43h-4.31c-.86 0-1.72-.43-3.01 0-.86.43-1.29 1.72-2.15 2.15-1.72.86-3.44 0-5.17 1.29-1.72 1.29-1.72 3.43-3.44 5.15-2.15 1.72-4.31 1.29-6.89 1.72-2.15.85-2.58 2.14-4.31 3.86-.95 1.26-2.36 1.83-3.04 2.89H795v-66.61z"/><path d="M734.508 263.204c-1.29 1.71-2.582 2.564-5.163 2.564-1.29 0-2.152-.428-3.442-.428-2.152 0-2.582 1.71-3.874 3.42-2.15 2.56-3.88 4.27-7.32 4.27-2.15 0-3.45-1.282-5.17-2.564-1.72-.852-3.02-.852-4.74-1.282-1.3-.852-2.59-1.28-4.31-1.28-2.15 0-3.01 1.28-5.17 2.562-5.17 2.564-8.18 3.846-13.34 6.837-2.15 1.71-3.44 3.42-6.46 3.42h-2.15c-.43 0-1.29-.428-1.72-.428h-6.45c-.43 0-.86 0-1.72.427-2.15.855-3.44 1.282-5.6 1.282h-2.15c-1.72 0-2.15 1.28-3.01 2.562-1.72 2.136-3.44 2.99-3.87 5.555-.43 1.29 0 2.57-1.3 3.42-2.15 1.29-3.87.86-6.45.86-1.72 0-2.58-1.28-4.31-1.71-3.02-.42-5.17-1.28-7.32-2.99-2.15-1.28-3.01-3.42-5.16-3.42-3.87 0-4.73 5.56-8.61 5.56-1.29 0-2.15 0-3.44-.42-.86-.42-1.29-1.28-2.58-1.28-2.15 0-3.01 2.14-3.01 4.28v2.14l-.43 1.71c.43 2.57 2.58 2.99 3.44 5.13-2.58 2.14-3.87 4.27-7.31 4.27-2.15 0-3.02-.43-4.74-.43-1.72 0-2.15 1.28-3.44 1.71-3.01 1.28-4.3 2.99-7.31 4.27-.87.86-1.3 1.71-2.58 1.71-.87 0-1.3-.43-1.73-.43-4.3-.85-6.89-2.99-9.47-6.4-.86-1.28-.86-2.56-2.15-3.42-1.29-.42-2.15 0-3.45-.42-2.58-.42-3.87-2.13-6.88-2.13h-2.59c-2.15 0-3.87-1.28-4.3-3.42h-.43l-3.44.86-1.72-.43c-1.29-2.13-3.01-3.41-5.6-3.41h-2.15c-.86 0-1.29-.85-1.29-1.28.86-2.13 0-3.84 1.29-5.55.86-1.28 2.15-.85 3.01-1.71 2.15-2.99 2.58-5.12 3.87-8.12 1.29-2.56 3.44-2.56 5.17-4.27 1.72-2.13 1.29-3.84 2.58-5.55 2.15-2.13 4.73-2.56 4.73-5.55 0-1.71 1.29-2.56 1.29-4.7 0-.43.43-1.28.86-1.71.86-2.13 1.3-3.84 1.3-5.98 0-2.99-2.15-4.7-2.15-7.69 0-1.71 1.72-2.13 3.44-2.98 1.72-.43 2.58-1.28 4.3-1.28 2.15 0 3.01 1.28 5.16 1.28 1.29 0 1.72-.43 3.01-.43.43 0 .43.86.86 1.28 1.29 1.28 2.15 2.99 4.31 2.99 1.29 0 1.29-1.28 1.72-2.56.43-1.28.43-2.13.43-3.42.43-2.99 2.58-4.27 2.58-7.26 0-2.13-3.45-.42-5.17-1.71-1.29-.85-2.15-1.71-3.44-2.99-.43-.85-1.29-.85-1.29-2.13v-5.13c0-1.28-1.72-.86-2.15-2.14-.43-.85-.43-1.71-1.3-2.13-1.29-.85-2.15 0-3.44-.42-3.01-.85-3.87-2.14-6.45-3.42-3.01-1.28-5.6-.85-7.32-3.84-1.29-2.56-1.29-4.27-2.15-7.26-.43-.85-1.72-1.28-1.72-2.56s1.72-.85 3.01-1.28c1.72-1.28 3.44-2.56 3.44-4.7 0-1.71-1.29-2.56-2.58-3.84-1.29-.85-1.72-2.14-2.58-3.42-1.29.43-2.15.85-3.44.85-1.3 0-2.59-.43-3.02-1.71-.86-2.14-1.29-3.42-1.29-5.56h-.86l-7.75 2.14c-3.87-3.42-2.58-8.54-6.88-11.96-2.15-1.71-3.01-3.42-4.3-5.55-1.29-1.71-3.01-1.28-3.88-2.56-.86-.85-.43-1.7-.86-2.99.86-.42 1.29-1.28 2.15-1.71.86-.42 1.72 0 2.58-.42 2.58-1.71 4.3-2.57 6.45-3.85 1.29-.85 1.72-1.28 2.58-1.71 3.87-1.71 6.88-1.71 10.32-3.84h.43c1.72 2.14 3.01 3.85 5.59 3.85 2.15 0 3.45-.43 5.59-.43 4.3 0 6.46 2.56 10.33 2.56 3.88 0 5.17-3.42 9.04-3.42 1.72 0 2.58.85 3.87.85 2.15 0 3.01-.42 4.73-.42 3.01-.43 5.6-.43 6.46-3.42.43-.854.86-2.14 1.72-2.563.86-.43 1.72 0 2.58-.43 1.29-1.28 1.29-2.565 2.58-3.85.43-.422.43-1.28 1.29-1.28.86 0 1.72.43 2.58.43h2.15c.86 0 1.73 0 2.59-.424.43 2.56 2.15 3.84 3.87 5.98 1.72 2.13 3.01 2.99 5.59 4.27 4.73 2.56 7.75 4.7 13.34 4.7h3.01c.86 1.71.43 2.56 1.29 4.27.43 1.28 2.15.85 3.44 1.71 1.29.43 2.15 1.28 3.44 1.71 1.29.85 3.01.85 3.01 2.13 0 1.71 0 2.99-1.29 4.28-1.29 1.28-2.58 2.13-2.58 3.84 0 .858.43.858.86 1.71 1.29 1.71 1.72 2.56 3.01 3.84 1.72 2.57 2.58 4.28 3.87 6.84.86 1.28 1.72 2.14 1.72 3.85 0 2.56-3.01 2.56-4.73 4.27-1.72 2.136-3.02 3.42-5.17 4.7-1.29.85-3.01 1.28-3.01 2.99v.856c.43 2.99 2.58 3.42 4.73 5.98.86.857 1.72 1.28 2.58 2.14.86 1.28 1.294 2.99 3.014 3.417h.87c1.72.43 2.15 1.71 3.88 2.57 1.72.85 3.44.85 5.16 1.71 2.59.85 3.87 1.708 6.03 1.708 1.72 0 2.58-1.28 3.87-1.28.86 0 1.29.85 1.72.85 1.72 0 3.01 0 4.73.86.43.43.43 1.29.86 2.14.43.43.86.43 1.72.43h.86c0 1.71 1.72 1.28 3.01 1.71 1.72.85 2.15 2.13 3.01 3.84.86 1.71 2.58 1.71 4.3 2.56 1.3.857 1.73 2.137 2.16 3.84.43 1.28.86 1.71 1.72 2.99.43 1.28.86 2.56 2.15 2.99 1.29.43 2.58-.43 4.3 0 2.15.43 3.44 1.28 6.02 1.28h9.47c.43 0 .86 0 1.29.43-1.29 1.71-3.44.43-5.59.85-.86.43-.86 1.28-1.29 1.71-1.29 1.28-2.15 1.71-3.876 2.99 1.73 1.71 2.59 2.99 4.31 4.7.86.86.86 2.14 2.16 2.568 3.01 1.28 5.16.86 8.17 2.56 3.87 2.13 5.16 4.7 9.04 6.41 3.01.85 5.17.43 7.32 2.56"/><path d="M520.915 156.47c.427 1.285 0 2.142.857 2.997.857 1.284 2.572.857 3.86 2.57 1.283 2.14 2.14 3.855 4.282 5.567 4.287 3.426 3.002 8.564 6.858 11.99l7.715-2.14h.857c0 2.14.43 3.425 1.287 5.564.43 1.285 1.72 1.715 3 1.715 1.29 0 2.15-.43 3.43-.857.86 1.284 1.29 2.57 2.57 3.426 1.29 1.285 2.58 2.142 2.58 3.854 0 2.14-1.71 3.426-3.43 4.71-1.28.428-3 0-3 1.285 0 1.29 1.29 1.72 1.72 2.57.86 3 .86 4.71 2.14 7.28 1.72 3 4.29 2.57 7.29 3.86 2.57 1.29 3.43 2.57 6.43 3.43 1.29.43 2.15-.43 3.43.43.86.43.86 1.29 1.29 2.14.43 1.29 2.14.86 2.14 2.14v5.14c0 1.29.86 1.29 1.29 2.14 1.29 1.29 2.15 2.14 3.43 3 1.72 1.29 5.15-.43 5.15 1.72 0 3-2.14 4.28-2.57 7.28 0 1.29 0 2.14-.43 3.43s-.43 2.57-1.71 2.57c-2.14 0-3-1.71-4.28-2.99-.42-.42-.42-1.28-.85-1.28-1.28 0-1.71.43-3 .43-2.14 0-3-1.28-5.14-1.28-1.71 0-2.57.86-4.28 1.29-1.71.86-3.43 1.29-3.43 3 0 3 2.14 4.71 2.14 7.71 0 2.15-.42 3.86-1.28 6-.43.43-.85 1.29-.85 1.72 0 2.15-1.29 3-1.29 4.71 0 3-2.57 3.43-4.71 5.57-1.29 1.71-.86 3.43-2.57 5.57-1.72 1.71-3.86 1.71-5.14 4.28-1.29 3-1.71 5.14-3.86 8.14-.86.85-2.14.42-3 1.71-1.28 1.71-.43 3.43-1.28 5.57 0 .42.43 1.28 1.29 1.28h2.14c2.58 0 4.29 1.28 5.58 3.42-1.71 0-3 1.72-5.14 1.72h-2.15c-2.14 0-2.99-.85-4.71-2.14-1.28-.43-1.71-1.71-3-1.71-2.57 0-3.43 1.29-5.57 2.14-.86.43-1.28.43-2.14.86-1.28 1.29-1.71 2.57-3 3.43-2.57 2.14-3.86 3.43-5.57 6-.86 1.29-2.14 0-3.43.86-1.28.43-1.71 1.72-3.42 1.72h-11.2c-1.71 0-3.43 0-4.72.86-2.14 1.72-2.57 4.29-4.71 4.29-1.71 0-2.57-1.71-4.28-1.71h-2.57c-.85-2.14-.85-3.85-1.28-5.99-1.28.42-2.14.42-3.43.42h-1.71c-1.28-.86-3 0-3.85-1.28 0-.86 0-1.28-.43-2.14-.85-1.28-2.14-1.28-3-2.57-.85.86-2.14 1.29-3.43 1.72-1.28.43-2.14 1.29-3.43 1.29-.85 0-1.71-.43-2.57-.43l-7.28 2.57c-1.71 0-2.14-1.29-3.43-1.29h-.86c-1.71 0-2.57-1.28-4.71-1.28-.42 0-.42.86-1.28.86-.85 0-1.28-1.28-2.14-1.28-.43 0-.43.85-.86.85-.85.43-1.28.43-2.14.43-1.28 0-1.71-1.71-3.43-1.71-2.14 0-3 1.29-5.14 1.29-1.71 0-2.57-.86-3.43-1.71l-1.71.43c-1.71-.43-2.57-1.28-3.85-2.14-.86-.86-1.71-.86-2.57-1.71-3-2.14-4.28-4.28-7.71-4.28-.42 0-.42.43-.85.43-1.28.43-2.14 1.28-3.43 1.28-.85 0-.85-.85-1.28-1.28-.85-1.28-2.14-1.28-3-1.71v-.86c0-2.14-1.28-3-2.57-4.71h.43l-.43-.43c-.86-.43-1.28-.85-2.14-1.71l.43-.43h1.72c0-.43.43-.85.43-1.28 0-1.72-1.72-2.14-3.43-2.57-.86-.43-1.29-1.71-1.71-2.14-.86-.86-1.71-.86-1.71-1.72V279c0-2.14-1.71-4.28-3.86-4.28-.86 0-1.28.85-2.14.85-.43 0-.43-.85-.86-1.71 0-.853-.43-1.283-.43-2.57h-1.28v1.287l-.43-.427c-1.71-1.716-1.71-3.855-3.85-5.14-.86-.43-2.15-.43-2.57-1.286-.43-.86 0-1.716-.86-2.14-.86-.427-1.29.43-2.57 0-.86 0-.43-1.71-1.29-2.57-1.29-1.28-3.43-1.71-3.43-3.85v-.86c0-.86 0-1.287-.43-1.287.86-1.285 2.14-2.14 2.14-3.427 0-1.283-.85-1.71-1.28-2.57l1.29-3.424c-.42-1.713-2.14-1.713-2.14-2.998 0-2.14 1.29-2.998 1.29-5.14v-2.14c0-1.285 1.28-1.285 1.71-2.14.43-1.71.86-3 .86-5.14 3 0 3.858-2.57 4.71-5.14 1.29-2.57 2.14-3.43 3-5.995-.43-2.144-1.71-3-1.71-5.14v-2.14c0-3-.86-4.71-2.57-7.71-.43-.856-1.713-.43-1.713-1.286 0-2.14.86-2.997.86-4.71 0-.856-.426-1.283-.426-2.14 0-1.715.43-2.57.43-3.854 0-.853-1.285-.853-1.713-1.71-.86-.43-.86-1.285-.86-1.71 0-1.71 1.29-2.14 2.14-3.427.43-1.28.43-2.57 1.29-2.992 1.29-.86 2.14 0 3.86-.43 1.29 0 2.15-.853 3.43-1.71 2.57-1.28 3.43-2.99 4.29-5.99.427-1.284 2.14-1.284 3-2.14 1.286-.856 1.286-1.713 1.71-2.997 1.29-.854 2.15-1.71 3.43-1.71 1.29 0 1.72.857 3.007.857 1.71 0 2.14-2.57 3.85-2.57h2.14c1.28 0 2.14-.43 2.14-1.288 0-1.714-1.29-2.14-1.29-3.856 0-.427.43-.855.43-.855h.43c1.29 0 2.15-.43 3.43-.86.86 1.29 2.14 2.148 3.86 2.148 1.72 0 2.15-.86 3.86-.86.86 0 1.286.86 2.14.86h6c.43 0 .86-.43 1.72-.43 2.15 0 2.15 2.14 3.43 3.86 1.716 2.14 3 2.996 4.29 5.565.854 1.714.854 3.428 2.57 5.14.856.858 1.71.428 3 .428.86 0 1.71.43 3 0 .856-.43.856-1.712 1.714-2.14h3c.43 1.286 0 2.14 0 3.855 0 1.29.85 2.57.85 3.86 0 3.86-2.57 6-6.43 6.85-3 .43-3.43 3.43-4.29 6.42.43 0 .86 0 1.29-.42l9-.85 7.71 5.14c.86-2.57 2.57-3.42 5.14-3.85 1.71 0 2.57 0 3.85-.43.86 0 1.71.43 2.14-.43.43-.43 0-1.28 0-1.71 0-1.28-1.29-1.71-1.29-3.42 0-.85.86-.85.86-1.71v-1.29c0-1.28.854-1.28 1.284-2.14.43-1.28-.43-2.14.43-3 .43-.85 1.29-.85 1.29-1.71s-.86-1.28-1.72-1.71c-1.71-2.14-3-2.14-5.14-2.99-1.282-.42-2.57-.42-2.57-1.71v-5.57c.86-1.28 1.718-1.71 2.57-2.99 0-2.14-.43-3.43-.852-5.14l9-3.85c1.71.86 2.14 2.14 3.43 3.43 1.29-1.29 1.72-3.43 3.43-3.43 2.57 0 4.29-.43 6.43.85 3 1.71 4.29 3.85 7.29 3.85 2.57 0 3.86-1.28 6-2.57 1.28-.42 1.71-1.71 2.57-1.71 1.28 0 1.71.86 2.14 1.71 1.71 1.72 3 2.57 4.71 2.57h2.14c.43 0 .86-.43 1.71-.43H521z"/><path d="M431.36 356c.743-.804 1.898-1.37 2.713-2.445 1.725-1.706 2.155-2.986 4.312-3.84 2.586-.428 4.743 0 6.898-1.707 1.724-1.707 1.724-3.84 3.45-5.12 1.723-1.28 3.45-.426 5.172-1.28.865-.425 1.295-1.707 2.157-2.132 1.295-.427 2.157 0 3.02 0h4.31c1.725 0 2.155-1.707 3.45-3.414 1.295-2.134 1.724-3.84 3.45-5.972.43-1.282.43-2.135 1.294-2.562 1.292-1.707 1.724-2.986 2.586-5.118.863-2.134 3.017-2.134 5.174-3.414 1.725-.854 1.725-2.134 3.45-2.56-.863-2.133-.863-3.84-1.296-5.974-1.292.428-2.154.428-3.45.428h-1.723c-1.292-.855-3.017 0-3.88-1.28 0-.855 0-1.282-.43-2.134-.864-1.28-2.158-1.28-3.02-2.56-.86.853-2.155 1.28-3.45 1.708-1.292.425-2.154 1.28-3.45 1.28-.86 0-1.723-.428-2.586-.428l-7.32 2.56c-1.72 0-2.15-1.28-3.45-1.28h-.86c-1.72 0-2.58-1.28-4.74-1.28-.43 0-.43.852-1.29.852s-1.29-1.28-2.15-1.28c-.43 0-.43.855-.86.855-.86.425-1.29.425-2.15.425-1.29 0-1.72-1.704-3.45-1.704-2.15 0-3.02 1.28-5.17 1.28-1.72 0-2.59-.855-3.45-1.708l-1.72.428c-1.72-.428-2.58-1.282-3.88-2.134-.86-.855-1.72-.855-2.58-1.707-3.02-2.134-4.31-4.266-7.76-4.266-.43 0-.43.425-.86.425-1.29.427-2.15 1.282-3.45 1.282-.86 0-.86-.855-1.29-1.282-1.72.427-2.59.854-3.88.854-2.59 0-3.45-1.706-5.6-1.706-2.16 0-3.45.852-5.61.852-.86 0-1.29-.425-2.15-.425-1.29 0-1.29 1.28-2.58 1.707-1.29.425-2.15.425-3.45.852-.86.427-1.29 1.28-2.15 1.28-.86 0-1.29 0-1.72-.425-.86-.42-1.29-.42-2.16-.42H369c-4.746 0-6.9-3.84-11.64-3.84h-3.88c-1.73 0-2.16-.85-3.887-.85-2.152 0-2.59 2.14-4.31 2.14-3.02 0-4.31-2.13-6.9-2.13-1.292 0-1.722.43-2.584.43-1.3 0-2.16-.85-3.45-1.28-2.16-.85-3.02-.85-5.61-.85-1.29 0-1.73 1.71-3.45 1.71h-1.3c-.86 0-1.29.86-2.15.86-2.59 1.28-3.88 1.28-6.47 1.28h-2.15c-1.3 0-2.16-.85-3.45-1.28-1.3-.85-2.59-.43-3.45-1.71-1.3-1.7-1.3-3.41-3.02-3.41-1.3 0-2.16.86-3.45.86-5.18 0-6.9-6.4-12.08-6.4-3.88 0-6.04.86-9.91 1.71l-3.89-.85h-1.3c-2.15 1.28-2.58 2.99-4.31 3.84-1.29.85-2.59.85-3.45 1.71-.43 1.28-.43 2.14-.86 2.99-.86.43-1.29 0-2.16.43-2.59 1.71-3.88 2.99-6.47 4.7-3.88 2.13-6.03 4.27-10.34 4.27h-2.16c-3.02 0-3.45 4.69-6.04 4.69h-3.45c-3.02 0-4.75 1.71-7.33 2.99-1.3.86-2.59.86-3.02 2.14-.86 1.28-.43 2.13-1.29 2.99-.87.43-1.73 0-2.59.43-.43.43-.86 1.28-1.3 1.28-1.29 0-2.15-.85-3.45-.85-.86 0-1.72-.42-2.15 0-.86.86-.86 1.71-1.3 2.99-1.29 1.71-2.15 2.56-2.58 4.69-.44 2.99-2.59 3.84-5.18 5.12-1.72.43-2.58.86-4.31.86h-.86c.43.43.43.86.43 1.28v.86c-2.59 0-3.45 3.41-6.03 3.41h-3.02c-3.45 0-5.17 2.57-8.62 2.57-1.29 0-1.72-.85-3.02-1.28-1.73 0-2.59-.42-3.45-1.7v-.42h-.43c-2.16 1.28-3.02 2.55-5.61 2.55-3.02 0-4.74-1.71-7.76-2.98-1.3-.43-1.73-1.71-3.02-1.71-.86 0-1.73.43-2.59.43-3.02 0-3.88-2.14-6.47-4.27-.86-.85-2.16 0-3.45-.42-2.16-.43-3.02-1.28-5.17-1.28h-1.73c-2.59 0-3.88-1.7-6.04-1.7s-2.59 1.71-4.75 1.71c-2.59 0-3.88-.86-6.9-1.71-4.31-1.28-6.9-2.13-11.21-2.13-3.45 1.71-2.59 5.97-6.47 7.25-.87.43-1.73 0-2.59.43-2.16 1.28-3.45 2.14-6.04 2.14-1.73 0-2.59-.43-3.88-1.71-.43-.85-.87-1.71-1.73-1.71H84.8c-6.037 0-9.486-2.13-15.52-2.13-1.727 0-2.16 1.71-3.88 2.14 1.72 1.28 4.31 2.13 6.47 2.56l4.31-.43h3.88c1.72 1.71 3.01 2.99 3.01 5.55v3.84l8.08 11.82h87.46c1.533-.31 2.653-1.17 4.06-1.17 1.616 0 2.56.67 3.67 1.17h4.2l2.49-.74c.224.23.36.48.456.74h237.85z"/><path d="M171.652 337.667c.865 1.284 1.732 1.712 3.46 1.712 1.3.42 1.734 1.28 3.03 1.28 3.465 0 5.195-2.57 8.656-2.57h3.032c2.595 0 3.462-3.42 6.06-3.42v-.86c0-.43 0-.86-.434-1.28h.865c1.73 0 2.6-.43 4.33-.86 2.6-1.28 4.76-2.14 5.2-5.14.43-2.14 1.3-3 2.6-4.71.44-1.29.44-2.14 1.3-3 .44-.43 1.3 0 2.16 0 1.3 0 2.17.85 3.47.85.44 0 .87-.85 1.3-1.28.87-.43 1.74 0 2.6-.43.87-.85.43-1.71 1.3-2.99.44-1.28 1.74-1.28 3.04-2.14 2.6-1.28 4.33-2.99 7.36-2.99h3.46c2.6 0 3.03-4.71 6.06-4.71h2.17c4.33 0 6.5-2.14 10.39-4.28 2.6-1.71 3.9-3 6.49-4.71.87-.43 1.3 0 2.17-.43.43-.86.43-1.71.87-3 .87-.86 2.17-.86 3.47-1.71 1.73-.86 2.16-2.57 4.33-3.85h1.3l3.89.85c3.9-.86 6.06-1.71 9.96-1.71 5.19 0 6.92 6.42 12.12 6.42 1.3 0 2.17-.86 3.46-.86 1.74 0 1.74 1.71 3.03 3.42.87 1.29 2.17.86 3.47 1.71 1.3.43 2.17 1.29 3.47 1.29h2.17c2.6 0 3.9 0 6.49-1.29.87 0 1.3-.85 2.17-.85h1.3c1.73 0 2.16-1.72 3.46-1.72 2.6 0 3.46 0 5.63.85 1.3.42 2.17 1.28 3.46 1.28.87 0 1.3-.43 2.6-.43 2.6 0 3.9 2.14 6.93 2.14 1.73 0 2.16-2.14 4.33-2.14 1.74 0 2.17.85 3.9.85h3.89c4.76 0 6.93 3.85 11.69 3.85h4.76c.87 0 1.3 0 2.17.43.44.42.87.42 1.73.42s1.3-.85 2.17-1.28c1.3-.43 2.16-.43 3.46-.86 1.3-.43 1.3-1.71 2.59-1.71.87 0 1.3.43 2.17.43 2.16 0 3.46-.86 5.63-.86 2.16 0 3.03 1.71 5.62 1.71 1.3 0 2.17-.43 3.9-.86-.87-1.29-2.16-1.29-3.03-1.72v-.86c0-2.14-1.3-3-2.6-4.71h.43l-.43-.43c-.86-.43-1.3-.86-2.16-1.72l.43-.43h1.73c0-.43.43-.86.43-1.28 0-1.72-1.73-2.14-3.46-2.57-.86-.43-1.29-1.71-1.73-2.14-.86-.86-1.73-.86-1.73-1.71v-1.29c0-2.14-1.73-4.28-3.89-4.28-.86 0-1.3.85-2.16.85-.43 0-.43-.86-.86-1.71 0-.86-.43-1.29-.43-2.57h-1.3v1.3l-.43-.43c-1.73-1.72-1.73-3.85-3.89-5.14-.87-.43-2.17-.43-2.6-1.29-.43-.85 0-1.71-.86-2.14-.86-.42-1.29.43-2.59 0-.87 0-.44-1.71-1.3-2.56-1.3-1.28-3.465-1.71-3.465-3.85v-.85c0-.86 0-1.28-.43-1.28-2.16-.43-1.3-3-3.03-3.85-1.73-1.29-3.46-.86-5.624-1.72-3.89-.86-6.06-1.29-10.384-1.29-2.6 0-4.33 1.71-6.93 1.71-1.3 0-2.16-.43-3.46-.43-.44 0-.44.43-.87.43-1.3 0-2.16.43-3.46-.43-.87 3.43-1.73 5.14-1.73 8.56 0 1.28.43 2.14.43 3.85 0 1.28-1.73 1.28-2.6 1.71-1.73.86-3.03 1.29-4.76 1.71-2.16.85-3.46.43-5.19 1.28-1.3.85-2.17 1.28-3.9 1.28v1.28c0 1.28.43 1.71.43 2.993v1.71c0 1.286-1.3 1.71-2.16 2.57-1.74 2.57-3.03 4.71-6.06 4.71-3.47 0-3.47-4.7-6.06-6.84-3.03-2.14-4.76-3.85-8.66-4.28 0-2.14-2.6-2.99-2.6-5.56 0-1.28.87-2.14 1.3-3.85v-.42c-1.73.424-3.03.424-3.89-.86-1.3-1.71-.43-2.995-.863-4.71-.43-1.28-1.3-1.71-2.6-2.57-2.17-3.42-3.9-5.56-7.36-7.27-1.3-.42-1.73-1.71-3.03-1.71-1.3 0-1.73 1.29-3.47 1.29-.86 0-1.3-.86-2.16-.86-1.73 0-2.6.43-3.9.43-2.6 0-3.46-2.57-6.06-2.57-2.17 0-3.03.43-5.2.43s-3.466-1.28-5.63-1.28H244c-1.733 0-2.6-1.288-4.33-2.14-1.3-.86-2.6-1.28-3.894-2.57-1.3-1.71-3.03-.85-4.76-2.14-1.3-.85-1.73-1.71-2.6-3.42-.43-.86-.43-1.71-1.3-3-.435-.855-1.735-.855-3.03-1.28-.87-.43-.87-.86-1.734-1.71-1.29-.86-2.59-.43-3.46-1.28-1.3-1.28-.43-3-1.3-4.28-1.292-.43-1.73-.43-2.59-.43-1.293 0-2.16.43-3.46.43-1.293 0-2.16-.85-3.46-.85-1.3 0-1.3 1.28-2.16 2.56-.86 1.713-2.16 3.425-4.76 3.425h-2.16c-1.3 0-2.16-.43-3.46-.43-3.03 0-3.896 2.57-6.49 4.28 0 3.42-.86 6.42-3.89 8.56-1.737 1.28-3.467.86-5.2 1.71-1.73.86-1.296 2.99-1.296 4.71v3.43c-.87 2.99-3.033 5.13-6.06 5.13-1.3 0-2.17-.425-3.47-.425-.43 0-.43.85-.86 1.28-.43 1.28-.43 2.14-1.3 3.42-.86 2.14-1.73 3-3.03 5.14-1.73 2.99-2.59 4.28-4.32 7.27-.43 1.28-1.3 1.71-1.3 2.99 0 2.57 3.03 3.85 3.03 6.42 0 1.71-.86 2.14-1.29 3.43-1.3 2.99-2.162 4.28-4.33 6.42-3.03 2.99-4.76 4.28-8.22 6.42-2.16 1.28-2.16 3.42-4.33 4.28-3.46.42-4.76 2.56-6.923 4.7-1.73 2.14-5.62 2.14-5.62 4.706 0 1.71 1.3 2.14 1.3 3.85 0 1.28-.867 2.14-1.73 2.997-.87.86-1.3 1.71-2.16 2.57.86 1.28 1.73 1.28 3.03 2.57 1.29 1.28.86 2.564 1.73 3.42 1.3.85 2.16 1.71 3.89 2.136 1.295.86 2.593.86 2.593 2.14 0 .43 0 .43-.43.86-3.03 0-3.89-2.566-6.92-2.566-.43 0-.86.43-1.3.43h-3.46c-1.73 0-2.59-1.71-4.32-1.71-1.3 0-1.73.42-3.03.42-1.73 0-2.6-.42-3.894-.42H112c-1.3 0-2.167-.85-3.46-.85-1.3 0-1.736 1.28-2.17 2.14 4.33 0 6.93.854 11.26 2.14 3.03.855 4.326 1.71 6.923 1.71 2.166 0 2.598-1.71 4.76-1.71 2.166 0 3.46 1.71 6.06 1.71h1.733c2.16 0 3.03.86 5.192 1.284 1.293.42 2.592-.43 3.46.42 2.594 2.14 3.46 4.28 6.49 4.28.863 0 1.73-.43 2.6-.43 1.3 0 1.73 1.29 3.03 1.72 3.03 1.28 4.76 2.997 7.79 2.997 2.592 0 3.46-1.283 5.62-2.57h.43v.43z"/><path d="M332.533 249.193c1.302.862 2.172.433 3.474.433.435 0 .435-.433.868-.433 1.302 0 2.172.433 3.474.433 2.6 0 4.34-1.725 6.94-1.725 4.34 0 6.51.43 10.42 1.3 2.17.86 3.9.44 5.64 1.73 1.73.86.87 3.45 3.04 3.88.87-1.29 2.17-2.15 2.17-3.45 0-1.29-.87-1.72-1.31-2.58l1.3-3.44c-.44-1.72-2.18-1.72-2.18-3.02 0-2.15 1.3-3.01 1.3-5.17V235c0-1.294 1.3-1.294 1.73-2.156.44-1.725.87-3.02.87-5.174 3.04 0 3.91-2.59 4.78-5.178 1.3-2.586 2.17-3.45 3.04-6.03-.44-2.16-1.74-3.02-1.74-5.177v-2.16c0-3.015-.87-4.74-2.61-7.756-.44-.87-1.74-.44-1.74-1.3 0-2.16.87-3.02.87-4.75 0-.87-.43-1.3-.43-2.16 0-1.73.43-2.59.43-3.88 0-.87-1.3-.87-1.74-1.73-.87-.43-.87-1.29-.87-1.73 0-1.73 1.3-2.16 2.17-3.45.43-1.3.43-2.59 1.3-3.02 1.3-.86 2.17 0 3.91-.43 1.3 0 2.17-.86 3.47-1.72 2.6-1.3 3.47-3.02 4.34-6.04.44-1.29 2.17-1.29 3.04-2.15 1.3-.86 1.3-1.73 1.74-3.02-2.17-1.29-3.48-.43-5.64-.86-.87-.43-1.31-.86-2.17-1.3-.87-.43-1.74-.43-2.61-1.3-.87-1.29-.87-3.02-2.17-3.02-1.74 0-2.61 1.3-4.78 1.3-2.17 0-3.91 0-5.64-1.3-.44 1.29-.44 2.15-1.3 3.02-1.31.43-3.04-.44-3.91.86-.44.43 0 1.29 0 1.72 0 1.29-1.31 1.29-2.18 2.15-.44-.44-.87-.87-.87-1.3v-4.74c0-3.45-4.78-2.59-6.51-5.18-1.3-2.58-.43-6.47-3.48-6.47-2.17 0-3.91.86-6.08.86-.43 2.15-.87 3.88-2.61 5.17-2.17 1.72-3.91 2.15-6.95 3.45-1.3.43-2.17.86-3.47.86-2.17 0-2.61-3.45-4.78-3.45-1.3 0-2.17.43-3.47.43-3.91 0-6.08 1.29-9.56 2.58-1.3.43-1.74.86-3.04.86-.87.43-1.74 0-2.17.43-1.3.86-1.3 2.15-2.61 2.59-1.3.86-2.17.43-3.48.86v3.02c0 2.15-2.61 3.01-5.21 3.01v.86c3.04 1.72 4.78 2.58 6.95 4.74 1.3 1.72 1.74 3.02 2.17 4.74.87 2.15 1.3 3.45 1.3 5.17v5.61c0 2.15 2.17 2.59 3.91 4.31 3.47 3.02 6.95 4.31 8.25 9.05.87-.43.87-.43 1.3-.43.87 0 .87.86 1.3 1.29.87.86 2.17.43 3.47.86v6.46l1.3 12.07v5.17c0 .86.44.86 1.31.86.87.86 1.74.86 2.61 1.29-1.74 1.3-2.61 2.16-4.34 3.02-1.31.86-.87 2.16-2.18 2.59-2.17.43-3.91 0-5.64 1.72l2.61 1.29c.43.43.43 1.29.87 1.29.87 0 1.3-.43 2.17-.86 2.17 1.29 0 5.6 2.6 6.03 2.6.86 3.91 1.29 6.95 1.72"/><path d="M295.898 171.08c2.988 1.716 4.698 2.576 6.832 4.723 1.282 1.717 1.71 3.004 2.137 4.72.852 2.148 1.28 3.437 1.28 5.154v5.58c0 2.148 2.136 2.578 3.843 4.295 3.416 3.004 6.835 4.293 8.114 9.014.855-.43.855-.43 1.282-.43.855 0 .855.86 1.282 1.29.852.857 2.134.427 3.416.857v6.44l1.28 12.02v5.153c0 .86.427.86 1.282.86.855.857 1.707.857 2.56 1.287-1.705 1.29-2.56 2.146-4.27 3.006-1.28.85-.852 2.14-2.134 2.57-2.134.43-3.843 0-5.553 1.71l2.56 1.29c.43.43.43 1.28.85 1.28.85 0 1.28-.43 2.13-.86 2.13 1.28 0 5.58 2.56 6.01 2.56.85 3.84 1.28 6.83 1.71-.85 3.43-1.71 5.15-1.71 8.58 0 1.29.42 2.15.42 3.86 0 1.28-1.71 1.28-2.57 1.71-1.71.85-2.99 1.28-4.7 1.71-2.14.86-3.42.43-5.13 1.29-1.28.86-2.14 1.29-3.85 1.29v1.28c0 1.29.43 1.72.43 3.01v1.71c0 1.29-1.28 1.72-2.14 2.58-1.71 2.58-2.99 4.72-5.98 4.72-3.42 0-3.42-4.73-5.98-6.87-2.99-2.15-4.7-3.87-8.54-4.3 0-2.14-2.56-3-2.56-5.58 0-1.29.85-2.15 1.28-3.86v-.43c-1.71.43-2.99.43-3.84-.86-1.28-1.72-.43-3.01-.86-4.73-.43-1.29-1.29-1.72-2.57-2.58-2.13-3.43-3.84-5.58-7.26-7.3-1.28-.43-1.71-1.72-2.99-1.72-1.28 0-1.71 1.29-3.41 1.29-.86 0-1.29-.85-2.14-.85-1.71 0-2.56.43-3.85.43-2.57 0-3.42-2.58-5.98-2.58-2.14 0-2.99.43-5.13.43-2.13 0-3.42-1.29-5.55-1.29h-3.41c-1.71 0-2.57-1.29-4.27-2.15-1.29-.86-2.57-1.29-3.85-2.58-1.28-1.72-2.99-.86-4.7-2.15-1.29-.86-1.71-1.72-2.57-3.44-.43-.86-.43-1.72-1.28-3-.43-.86-1.71-.86-2.99-1.29-.86-.43-.86-.86-1.71-1.72-1.28-.86-2.56-.43-3.42-1.29-1.28-1.29-.43-3.01-1.28-4.3.85-1.72 2.13-1.72 3.41-3 1.28-.86.85-2.57.85-4.29 0-2.58-1.28-4.29-2.99-5.58 2.13-1.72 2.56-3.43 5.12-4.72 1.29-.42 2.14-.85 2.99-1.28.86-.43 2.14-.86 2.14-1.71v-3.01c.43-2.58.43-5.15 2.56-5.15h2.56c3.42 0 3.85-4.73 3.85-8.16v-.43c1.28 0 2.14.86 2.99 1.29 2.13.85 3.41 2.14 3.41 4.72 0 2.14-.43 3.43-2.14 5.15-.86.85-1.71 1.71-1.71 3s1.7 1.72 3.41 1.72c1.28 0 2.13.43 3.41.43 1.71.43 2.56.86 4.7.86 1.28 0 1.28-1.29 2.13-2.58.86-1.72 1.29-3.01 2.14-5.16.43-1.29.43-2.58 1.71-3.43 2.14-.86 3.42-1.29 5.55-2.58 1.28-.43 2.14-1.29 3.42-1.72.86 0 1.71 0 1.71-.86 0-1.29-.42-2.15-.42-3.44v-1.72c0-1.72 2.14-.86 2.99-1.72.85-.86.43-1.72.85-2.57.43-1.29 1.28-1.29 2.14-2.57.85-.86 1.28-1.72 2.56-2.58.85 1.72 2.56 2.58 2.98 4.72.43 2.15.43 4.72 2.56 4.72 1.71 0 2.99.86 4.7.86 3.84 0 4.7-4.29 8.11-6.01"/><path d="M228.93 194.74v2.96c0 .847-1.29 1.27-2.15 1.692-.86.424-1.72.847-3.013 1.27-2.582 1.268-3.012 2.96-5.164 4.654 1.722 1.27 3.012 2.96 3.012 5.5 0 1.692.43 3.383-.86 4.23-1.292 1.27-2.58 1.27-3.44 2.962-1.293-.423-1.723-.423-2.583-.423-1.292 0-2.152.423-3.444.423-1.29 0-2.15-.848-3.44-.848s-1.29 1.27-2.153 2.54c-.86 1.69-2.152 3.385-4.734 3.385h-2.14c-1.29 0-2.15-.425-3.44-.425-3.01 0-3.87 2.54-6.45 4.23-1.72-2.113-4.3-1.27-6.88-2.538-.43-.422-.86-1.267-1.29-1.692-1.29-.844-2.58-.422-3.44-1.69-1.29-1.27-2.15-2.54-2.15-4.232v-6.77c-2.15 1.693-3.01 3.81-6.02 3.81-1.72 0-2.58-1.27-4.3-2.54 0-3.383-2.15-5.5-5.16-7.19-1.72-.848-2.58-.848-3.87-2.54h.43c1.72-.422 2.58-2.116 2.58-3.808 0-1.27-1.29-2.114-1.29-3.383 0-1.692.43-2.117.43-3.808 0-2.12-.86-3.39-1.29-5.5l1.72-4.66h1.29c.86 0 1.72.42 2.58.42h7.32c.86 0 1.72.42 3.01.42 1.73 0 2.59-.85 4.31-2.12.86-.43 1.72-.43 2.15-1.27.86-1.27.86-2.12 1.29-2.96 1.72-2.54 2.58-3.81 4.73-5.93 2.15.84 3.45 1.69 6.03 2.96.86.42 1.72 1.27 3.01 1.27h2.15c1.29 0 1.72-.85 3.44-.85h1.73c1.29 0 1.72.85 3.01.85 2.16 0 3.02-1.7 5.17-1.7.86 0 1.29.84 2.58.84 2.15 0 3.44-1.27 6.03-1.27 2.58 0 4.3.42 6.45 1.27 2.16.84 3.88 1.69 3.88 3.81 0 .84-1.29.42-2.15.84-1.29.42-1.72.84-3.01 1.27.86 1.69.86 3.38.86 5.5 0 2.96-2.15 4.23-2.15 7.61 0 1.27 1.72 1.69 3.01 2.54 1.29 0 2.15.42 3.87.85m-99.51 122.8c.87 1.31 1.74 1.31 3.04 2.63 1.3 1.31.87 2.62 1.74 3.5 1.3.88 2.17 1.75 3.91 2.19 1.31.87 2.61.87 2.61 2.19 0 .44 0 .44-.43.87-3.05 0-3.92-2.63-6.96-2.63-.43 0-.87.44-1.3.44h-3.48c-1.74 0-2.61-1.75-4.35-1.75-1.3 0-1.74.43-3.04.43-1.74 0-2.61-.44-3.91-.44h-3.91c-1.3 0-2.17-.88-3.48-.88-1.3 0-1.74 1.31-2.17 2.19-3.48 1.75-2.61 6.13-6.53 7.44-.87.44-1.74 0-2.61.44-2.17 1.31-3.48 2.19-6.09 2.19-1.74 0-2.61-.44-3.91-1.76-.43-.88-.87-1.75-1.74-1.75H85.1c-6.09 0-9.57-2.19-15.66-2.19-1.74 0-2.175 1.75-3.915 2.19-1.74-1.32-3.044-3.07-3.044-5.69 0-1.76.44-2.19.44-3.95 0-4.82-.87-7.88-.87-13.14 0-2.63 1.31-4.38 1.31-7.45v-2.19c0-2.19-2.17-2.63-2.17-4.82 0-1.32 2.18-1.32 3.48-2.19 1.31-1.32 1.74-3.07 2.18-5.26h.44c1.3.43 1.3 1.75 2.61 1.75.43 0 .43-.88.43-1.32 0-2.19-1.3-3.07-1.3-4.82 0-.88 1.3-1.32 1.3-2.19v-2.19l-2.61-6.57c.44-.88.44-1.31.44-2.19 0-2.19-.43-3.51-1.74-5.26 1.31-3.06 3.05-5.25 6.09-6.57-.43-1.31-.87-2.19-2.17-3.06 1.31-.44 2.18-.88 3.48-.88.87 0 1.31.87 1.74 1.75.44.44 1.31.44 1.31 1.31v1.75c0 .88-.43.88-.43 1.31 0 1.75.44 2.19 1.31 3.5 2.61-4.82 6.96-5.26 11.75-6.57 3.48-.88 2.61-4.38 3.92-7.45.87-1.75 3.05-1.75 4.79-2.19 1.74 1.75 2.61 3.5 4.79 3.5h2.18c1.3 0 2.61 0 3.91.44 1.74 1.31 1.31 3.5 1.31 5.25 0 3.5-2.61 4.37-3.92 7.44 1.31.44 1.31 1.75 1.31 2.63 0 1.31-1.31 1.75-1.74 3.07-2.17 3.06-3.91 4.37-4.78 7.44 4.78 1.31 8.26 3.5 10 8.32.44 1.75 2.61 1.31 4.79 1.31 1.31.44 2.18 1.31 3.48 1.75 1.31.44 3.05 0 3.05 1.32v2.2c0 1.75-.43 3.06-.43 4.81v2.63c0 .44-.44.87-.44 1.75 0 0-.43 0-.43.44 0 3.51 2.61 4.82 4.35 7.88 1.31 2.63 1.31 5.26 3.92 7.01"/><path d="M129.414 317.54c.87 1.313 1.74 1.313 3.044 2.628 1.305 1.312.87 2.627 1.74 3.502 1.305.877 2.175 1.752 3.914 2.19 1.305.875 2.612.875 2.612 2.19 0 .437 0 .437-.435.874-3.05 0-3.92-2.627-6.97-2.627-.44 0-.87.438-1.31.438h-3.48c-1.74 0-2.61-1.75-4.35-1.75-1.31 0-1.74.437-3.05.437-1.74 0-2.61-.437-3.92-.437h-3.91c-1.31 0-2.18-.878-3.48-.878-1.31 0-1.74 1.315-2.18 2.19-3.48 1.752-2.61 6.13-6.53 7.444-.87.44-1.74 0-2.61.44-2.18 1.32-3.48 2.19-6.09 2.19-1.74 0-2.61-.44-3.92-1.75-.44-.87-.87-1.75-1.74-1.75h-1.74c-6.09 0-9.57-2.19-15.66-2.19-1.74 0-2.18 1.75-3.92 2.19-1.74-1.31-3.05-3.06-3.05-5.69 0-1.75.44-2.19.44-3.94 0-4.81-.87-7.88-.87-13.13 0-2.62 1.3-4.37 1.3-7.44v-2.19c0-2.19-2.18-2.62-2.18-4.81 0-1.31 2.18-1.31 3.48-2.19 1.31-1.31 1.74-3.06 2.18-5.25h.44c1.3.44 1.3 1.75 2.61 1.75.43 0 .43-.87.43-1.31 0-2.19-1.31-3.06-1.31-4.81 0-.88 1.31-1.31 1.31-2.19v-2.19l-2.61-6.57c.43-.87.43-1.31.43-2.19 0-2.19-.44-3.5-1.74-5.25 1.3-3.06 3.04-5.25 6.09-6.57-.44-1.31-.87-2.19-2.18-3.06 1.3-.43 2.17-.87 3.48-.87.87 0 1.3.88 1.74 1.75.43.44 1.3.44 1.3 1.32v1.76c0 .88-.44.88-.44 1.31 0 1.76.43 2.19 1.3 3.51 2.61-4.81 6.96-5.25 11.74-6.56 3.48-.87 2.61-4.38 3.91-7.44.87-1.75 3.04-1.75 4.78-2.19 1.74 1.76 2.61 3.51 4.79 3.51h2.2c1.3 0 2.61 0 3.91.44 1.74 1.31 1.3 3.5 1.3 5.25 0 3.5-2.61 4.38-3.91 7.45 1.3.44 1.3 1.75 1.3 2.63 0 1.31-1.31 1.75-1.74 3.07-2.18 3.06-3.92 4.38-4.79 7.44 4.78 1.32 8.26 3.51 10 8.32.44 1.75 2.61 1.32 4.79 1.32 1.3.44 2.17 1.31 3.48 1.75 1.3.44 3.04 0 3.04 1.31v2.19c0 1.75-.43 3.07-.43 4.82v2.63c0 .44-.44.87-.44 1.75 0 0-.44 0-.44.44 0 3.5 2.61 4.81 4.35 7.88 1.3 2.62 1.3 5.25 3.91 7m261.3-149.91c1.29-.86 2.15-1.73 3.44-1.73s1.72.87 3.01.87c1.72 0 2.15-2.6 3.87-2.6h2.15c1.29 0 2.15-.43 2.15-1.3 0-1.73-1.29-2.17-1.29-3.9 0-.43.43-.86.43-.86-1.29-4.32-5.59-3.89-9.03-6.06-3.45-2.16-3.88-5.62-3.88-9.51 0-3.46 1.29-5.19 1.29-8.65 0-1.3-.86-1.73-1.72-2.6-.43-.43-.43-.86-1.29-.86h-3.45c-.43 0-.86.43-1.29.43-1.29 0-2.15-.87-3.01-1.73-3.01-1.73-3.45-4.33-4.31-7.36h-.43c-1.72 0-2.58.44-4.31.44-1.29 0-1.72-1.3-2.58-1.3h-1.71c-.86 0-1.29.43-2.15.43-1.29 0-1.72-1.73-3.01-1.73-1.29 0-1.72 1.73-3.01 1.73-3.01 0-3.87-3.02-6.46-4.32-.86-1.73-1.29-2.59-2.15-3.89-1.3 2.17-1.72 4.33-3.88 4.33-1.29 0-1.72-1.73-2.58-1.73-.86 0-1.29.87-2.15 1.3-.86.43-1.72.87-1.72 1.73 0 1.73.43 3.03.43 4.76 0 2.6 1.29 4.33.86 7.36l.86 6.92c-.43 1.73-3.01 1.73-3.01 3.46v2.6c0 1.3.87 2.17.87 3.9V150c0 1.29-.86 2.16-.86 3.46v2.16c0 .43 0 .86.43 1.73 1.72-1.3 2.15-3.03 2.58-5.19 2.15 0 3.87-.87 6.02-.87 3.01 0 2.15 3.9 3.44 6.49 1.72 2.6 6.45 1.73 6.45 5.198v4.76c0 .43.44.866.87 1.298.86-.86 2.15-.86 2.15-2.16 0-.43-.43-1.294 0-1.73.86-1.3 2.58-.43 3.87-.864.86-.87.86-1.73 1.29-3.03 1.72 1.3 3.44 1.3 5.59 1.3s3.01-1.3 4.73-1.3c1.29 0 1.29 1.73 2.15 3.02.86.87 1.72.87 2.58 1.3.86.44 1.3.87 2.16 1.3 2.15.44 3.44-.43 5.59.87"/><path d="M390.715 167.635c1.29-.865 2.152-1.73 3.442-1.73 1.292 0 1.722.865 3.01.865 1.723 0 2.153-2.597 3.875-2.597h2.152c1.29 0 2.15-.432 2.15-1.297 0-1.73-1.29-2.165-1.29-3.894 0-.433.43-.865.43-.865-1.29-4.326-5.594-3.894-9.035-6.06-3.45-2.16-3.88-5.622-3.88-9.516 0-3.46 1.29-5.19 1.29-8.65 0-1.3-.86-1.73-1.72-2.59-.43-.43-.43-.86-1.29-.86h-3.45c-.43 0-.86.43-1.29.43-1.29 0-2.15-.86-3.01-1.73-3.01-1.73-3.45-4.32-4.31-7.35h-.43c-1.72 0-2.58.44-4.31.44-1.29 0-1.72-1.3-2.59-1.3h-1.72c-.86 0-1.29.43-2.15.43-1.29 0-1.72-1.73-3.01-1.73-1.29 0-1.72 1.73-3.01 1.73-3.02 0-3.88-3.02-6.46-4.32-.86-1.73-1.29-2.59-2.15-3.89-1.3 2.17-1.73 4.33-3.88 4.33-1.29 0-1.72-1.73-2.58-1.73-.86 0-1.3.87-2.16 1.3-.86.44-1.72.87-1.72 1.74 0 1.73.43 3.03.43 4.76 0 2.6 1.29 4.33.86 7.35l.86 6.92c-.43 1.73-3.01 1.73-3.01 3.46v2.6c0 1.3.86 2.17.86 3.9v2.17c0 1.3-.87 2.16-.87 3.46v2.16c0 .44 0 .87.43 1.74 1.72-1.3 2.15-3.03 2.58-5.2 2.15 0 3.87-.86 6.03-.86 3.01 0 2.15 3.9 3.44 6.49 1.72 2.6 6.45 1.73 6.45 5.2v4.76c0 .43.43.86.86 1.3.86-.86 2.15-.86 2.15-2.16 0-.43-.43-1.3 0-1.73.86-1.3 2.58-.43 3.87-.87.86-.86.86-1.73 1.29-3.03 1.72 1.3 3.44 1.3 5.59 1.3s3.01-1.3 4.73-1.3c1.29 0 1.29 1.73 2.15 3.03.86.87 1.72.87 2.58 1.3.86.44 1.29.87 2.15 1.3 2.15.44 3.44-.43 5.59.87"/><path d="M301.647 164.64c1.29-.423 2.152 0 3.442-.848 1.29-.422 1.29-1.69 2.58-2.538.43-.425 1.29 0 2.15-.425 1.29 0 1.72-.43 3.01-.85 3.44-1.27 5.59-2.54 9.47-2.54 1.29 0 2.15-.43 3.44-.43 2.15 0 2.58 3.38 4.73 3.38 1.29 0 2.15-.43 3.44-.85 3.01-1.27 4.73-1.7 6.88-3.39-.43-.85-.43-1.27-.43-1.69v-2.12c0-1.27.86-2.12.86-3.39v-2.12c0-1.7-.86-2.54-.86-3.81v-2.54c0-1.7 2.58-1.7 3.01-3.39l-.86-6.77c.43-2.97-.86-4.66-.86-7.2 0-1.7-.43-2.97-.43-4.66 0-.85.86-1.27 1.72-1.69.86-.43 1.29-1.27 2.15-1.27.86 0 1.29 1.69 2.58 1.69 2.15 0 2.58-2.12 3.87-4.24l-.43-.42c-3.45.85-5.17 1.69-8.61 1.69-1.29 0-2.15.42-3.44-.42-.43-.43-.86-1.27-1.73-1.27-1.72 0-1.72 2.54-3.01 2.54-1.29 0-1.72-.43-3.02-.43-3.01-.85-4.73-.85-8.18-.85-1.29 0-2.15.85-3.87.85h-.43l-2.15-10.16-8.61 7.2c-2.15 2.12-4.3 2.54-6.89 5.08-1.29 1.27-2.15 2.12-3.44 3.81-.86.85-1.72 1.27-1.72 2.12-.43 1.7 0 2.54 0 3.81 0 4.23.43 6.77.43 11.43 0 3.39-1.29 7.62-4.74 7.62-.86 0-.86 0-1.72.42 0-1.27-.44-1.69-.86-2.54-.43 0-.43-.42-.43-.42-.43.42-.43.42-.43.85v2.53c0 2.54-1.3 4.23-1.3 6.77 0 2.11 2.15 2.96 3.44 4.66 1.72 1.27 2.58 2.96 4.73 2.96 1.72 0 .86-2.54 1.29-3.81.86-1.7 2.15-2.54 2.15-4.24h.43c2.15 0 3.01 1.27 5.16 1.69-2.58 3.38-2.15 5.92-2.58 10.15"/><path d="M301.647 164.64c1.29-.423 2.152 0 3.442-.848 1.29-.422 1.29-1.69 2.58-2.538.43-.425 1.29 0 2.15-.425 1.29 0 1.72-.43 3.01-.85 3.44-1.27 5.59-2.54 9.47-2.54 1.29 0 2.15-.43 3.44-.43 2.15 0 2.58 3.38 4.73 3.38 1.29 0 2.15-.43 3.44-.85 3.01-1.27 4.73-1.7 6.88-3.39-.43-.85-.43-1.27-.43-1.69v-2.12c0-1.27.86-2.12.86-3.39v-2.12c0-1.7-.86-2.54-.86-3.81v-2.54c0-1.7 2.58-1.7 3.01-3.39l-.86-6.77c.43-2.97-.86-4.66-.86-7.2 0-1.7-.43-2.97-.43-4.66 0-.85.86-1.27 1.72-1.69.86-.43 1.29-1.27 2.15-1.27.86 0 1.29 1.69 2.58 1.69 2.15 0 2.58-2.12 3.87-4.24l-.43-.42c-3.45.85-5.17 1.69-8.61 1.69-1.29 0-2.15.42-3.44-.42-.43-.43-.86-1.27-1.73-1.27-1.72 0-1.72 2.54-3.01 2.54-1.29 0-1.72-.43-3.02-.43-3.01-.85-4.73-.85-8.18-.85-1.29 0-2.15.85-3.87.85h-.43l-2.15-10.16-8.61 7.2c-2.15 2.12-4.3 2.54-6.89 5.08-1.29 1.27-2.15 2.12-3.44 3.81-.86.85-1.72 1.27-1.72 2.12-.43 1.7 0 2.54 0 3.81 0 4.23.43 6.77.43 11.43 0 3.39-1.29 7.62-4.74 7.62-.86 0-.86 0-1.72.42 0-1.27-.44-1.69-.86-2.54-.43 0-.43-.42-.43-.42-.43.42-.43.42-.43.85v2.53c0 2.54-1.3 4.23-1.3 6.77 0 2.11 2.15 2.96 3.44 4.66 1.72 1.27 2.58 2.96 4.73 2.96 1.72 0 .86-2.54 1.29-3.81.86-1.7 2.15-2.54 2.15-4.24h.43c2.15 0 3.01 1.27 5.16 1.69-2.58 3.38-2.15 5.92-2.58 10.15"/><path d="M308.532 111.833c-2.172 2.147-4.347 2.577-6.956 5.15-1.303 1.29-2.172 2.148-3.477 3.865-.87.86-1.74 1.29-1.74 2.146-.44 1.717 0 2.577 0 3.864 0 4.294.43 6.87.43 11.594 0 3.434-1.3 7.728-4.78 7.728-.87 0-.87 0-1.74.427 0-1.287-.44-1.717-.87-2.574-.44 0-.44-.43-.44-.43-.44.43-.44.43-.44.86v2.574c0 2.576-1.31 4.293-1.31 6.87 0 2.147 2.17 3.004 3.48 4.72 1.73 1.29 2.6 3.008 4.78 3.008 1.74 0 .87-2.577 1.3-3.864.87-1.71 2.17-2.57 2.17-4.29h.43c2.17 0 3.04 1.29 5.22 1.72-2.61 3.44-2.18 6.01-2.61 10.31v3.01c0 2.15-2.61 3.01-5.22 3.01v.86c-3.48 1.72-4.35 6.01-8.26 6.01-1.74 0-3.04-.85-4.78-.85-2.17 0-2.17-2.57-2.61-4.72-.43-2.14-2.17-3-3.04-4.72-1.3.86-1.74 1.72-2.61 2.58-.87 1.29-1.74 1.29-2.18 2.58-.43.86 0 1.72-.87 2.58-.87.86-3.05 0-3.05 1.72v1.71c0 1.29.43 2.15.43 3.43 0 .86-.87.86-1.74.86-1.31.43-2.18 1.29-3.48 1.72-2.17 1.29-3.48 1.72-5.65 2.58-1.31.86-1.31 2.14-1.74 3.43-.87 2.15-1.31 3.44-2.18 5.15-.87 1.29-.87 2.58-2.18 2.58-2.17 0-3.04-.43-4.78-.86-1.31 0-2.18-.42-3.48-.42-1.74 0-3.48-.43-3.48-1.72 0-1.28.87-2.14 1.74-3 1.73-1.71 2.17-3 2.17-5.15 0-2.57-1.31-3.86-3.48-4.72-.87-.43-1.74-1.29-3.05-1.29v.43c0 3.44-.43 8.16-3.91 8.16H232c-2.172 0-2.172 2.58-2.61 5.15-1.735-.42-2.604-.85-3.91-.85-1.3-.86-3.04-1.29-3.04-2.58 0-3.43 2.17-4.72 2.17-7.72 0-2.15 0-3.86-.864-5.58 1.3-.43 1.735-.86 3.04-1.29.866-.43 2.17 0 2.17-.86 0-2.14-1.738-3-3.91-3.86-2.175-.86-3.915-1.29-6.52-1.29-2.61 0-3.916 1.29-6.088 1.29-1.307 0-1.74-.86-2.61-.86-2.176 0-3.046 1.72-5.22 1.72-1.303 0-1.74-.86-3.043-.86h-1.735c-1.74 0-2.173.86-3.48.86h-2.17c-1.305 0-2.175-.86-3.045-1.29-2.61-1.28-3.91-2.14-6.086-3-.44-2.14-1.31-3.43-2.18-5.58-.43-.86-1.3-1.71-1.3-2.57 0-2.14.87-3 1.3-5.15l-.87-4.72c2.61-2.57 3.04-5.58 3.91-9.01l-.43-8.58h.43c3.04 0 4.35-2.58 6.96-3.86 3.48-2.14 4.35-4.72 6.52-7.72 4.35-5.58 11.3-3.01 15.65-8.16 1.74-1.72 3.91-1.72 6.08-2.58 3.47-1.72 5.65-1.72 9.13-2.15 6.52-.43 9.99-1.72 16.52-1.72h2.6c3.47 0 6.08.43 8.69 3.01 1.3-2.57 3.91-2.57 6.52-3.43 3.48-1.72 5.65-2.58 9.56-2.58 2.17 0 3.47 1.72 5.65 1.72h8.26c2.17 0 3.48 0 5.21.86.87.43.87.86 1.74.86 1.3 0 1.3-1.29 2.6-1.72 3.04-.86 4.78-.86 7.82-.86 1.3 0 1.3 1.29 1.74 2.58.43 1.72.87 2.15 1.3 3.86"/><path d="M308.264 110.828l8.658-7.204 2.167 10.17h.43c1.73 0 2.59-.847 3.89-.847 3.46 0 5.19 0 8.22.847 1.3 0 1.73.425 3.03.425 1.3 0 1.3-2.55 3.03-2.55.86 0 1.3.85 1.73 1.27 1.3.84 2.16.42 3.46.42 3.46 0 5.19-.85 8.66-1.7-.44-.42-.87-1.27-1.3-1.7-1.74-3.39-2.17-5.51-3.03-9.32-.87-1.7-1.3-2.55-1.3-4.67 0-2.54 3.46-2.12 5.63-3.39-1.3-1.7-3.47-1.7-6.07-2.55-.87 0-2.16-.42-2.16-1.27v-.42c1.73 0 2.16-.43 3.89-.43.86 0 1.73 0 2.6.42-2.17-6.78-6.93-8.9-8.23-15.68-3.47-.43-5.63-1.28-7.79-3.82-1.3-1.27-1.3-2.54-3.04-3.39-1.73-.85-3.47-.85-5.2-1.7-1.3-.43-1.3-1.7-2.17-2.55-1.73-1.27-3.46-.43-5.63-1.27-1.74-.85-3.47-1.27-4.77-2.97-.87-1.27-.87-3.39-2.6-3.39h-3.47c-.44 0-.87-.43-1.74-.43l-7.36 1.27c-2.17-.42-3.47-.85-4.77-2.54-1.73-2.54-4.33-2.12-7.79-2.54-1.73-.42-2.6-1.7-4.76-1.7-3.03 0-3.9 3.38-6.93 3.38-3.47 0-5.2-1.7-8.66-1.7-2.6 0-3.03 3.81-6.06 3.81-.87 0-1.3-1.27-2.17-1.7l-2.17-2.12c-3.03-3.39-3.47-5.51-5.63-8.9-1.3-1.7-1.3-2.96-2.17-4.66-1.3-4.24-1.73-6.36-2.17-10.59-.43-3.39-.43-5.09-1.3-8.48-.43-2.54-1.73-3.81-3.03-6.35-1.3-2.55-1.74-4.66-4.33-5.94-1.3-.42-2.17-.42-3.47-1.27-1.73-.42-2.6-1.69-4.33-1.69s-2.6 2.12-3.46 3.39c-1.73 2.12-3.03 3.81-5.63 3.81-.87 0-1.3-.42-1.73-.42h-.87c0 3.39-1.3 5.08-2.6 8.05-.43 2.12-2.17 3.39-2.17 5.51 0 1.27.44 2.12.87 3.39.87 1.27.87 2.54 1.73 3.81.43.85 1.3.42 2.16.85.87.84.87 1.69.87 2.96 0 .42-.87.84-.87 1.27 0 .42.43 1.27.87 1.27s.87-.43 1.73-.85c-.44 1.69-1.3 2.12-2.6 3.39-.43 0-1.3 0-1.3.43 0 1.69.87 2.54 2.17 2.54 3.9 0 5.63-.42 9.53-.85 1.73-.42 2.59-1.27 4.33-1.27h4.32c1.3 0 2.17 0 3.47-.42 1.29-.85 1.73-1.7 2.59-1.7s1.3.42 2.16.42c.43 0 .43-.42.86-.42 2.17 2.12 2.17 4.23 3.03 7.63.44 2.11 1.74 3.39 1.74 5.93 0 3.39-3.47 5.08-6.93 5.08-5.2 0-6.93-3.81-11.26-6.36-1.3-.85-2.6-.85-4.33-1.27-1.74-.85-2.6-1.7-3.9-2.55v.43c.43.42.86.84.86 1.69v.42c2.6.42 3.46 1.69 6.06 2.12-.43.84-1.3 1.27-1.73 2.12 0 .85 0 1.69-.87 1.69s-1.3-.43-2.17-.43c-.43 0-.86.85-1.3.85-.43 0-.86-.42-1.3-.42h-.4c0 1.27-1.3 1.27-2.6 2.54-1.3 1.7-2.17 3.81-4.77 3.81h-1.73c-2.17 0-2.6.85-4.33 1.69-2.6 1.7-4.33 2.97-7.36 2.97-1.3 0-2.17-.42-3.46-.42h-1.3c0 .85 0 1.7-.43 2.12-.87 1.7-3.03 1.7-4.768 2.12-3.03.43-5.2.43-8.23.43h-4.76c-3.467 0-5.2 1.27-7.79 2.97-1.3 1.27-2.6 1.7-4.33 2.54-1.3.43-2.17 1.27-3.47 2.12-3.894 1.27-6.06 2.12-9.09 4.24-3.03 2.12-4.76 2.97-8.225 4.24-1.3.42-1.74.84-2.6 1.27 1.73 1.69 2.6 3.39 4.33 5.51.43.42 1.3.42 1.73 1.27.86 1.27.86 2.54 2.16 3.39.86.84 2.16.84 3.46 1.27 1.73 1.27.43 3.39 1.3 5.5.43 2.12 1.73 2.54 2.6 4.24 1.3 2.12 2.16 3.39 3.9 5.51.43.84 1.29.84 1.72 2.12 1.73 2.54 2.6 5.5 5.63 5.5 2.16 0 3.46-.42 6.06-.42 3.89 0 6.93 2.54 6.93 6.35v2.6c0 .84-.44 1.69.43 2.54.87.85 1.73.42 2.6.85h.43c3.03 0 4.33-2.54 6.92-3.81 3.46-2.12 4.33-4.66 6.49-7.63 4.33-5.51 11.25-2.97 15.58-8.06 1.73-1.7 3.9-1.7 6.06-2.55 3.46-1.69 5.63-1.69 9.09-2.11 6.49-.42 9.96-1.7 16.45-1.7h2.59c3.46 0 6.06.43 8.66 2.97 1.3-2.54 3.9-2.54 6.5-3.39 3.46-1.69 5.63-2.54 9.53-2.54 2.16 0 3.46 1.69 5.62 1.69h8.23c2.17 0 3.46 0 5.2.85.87.43.87.85 1.73.85 1.3 0 1.3-1.27 2.6-1.7 3.03-.84 4.76-.84 7.79-.84 1.3 0 1.3 1.28 1.73 2.55.43 1.7.87 2.12 1.3 3.82M632 150.54c.86 1.73.43 2.596 1.29 4.32.43 1.3 2.15.868 3.44 1.73 1.29.435 2.153 1.3 3.443 1.73 1.29.867 3.01.867 3.01 2.16 0 1.73 0 3.03-1.29 4.326-1.29 1.297-2.58 2.16-2.58 3.89 0 .864.43.864.86 1.73 1.29 1.73 1.72 2.593 3.01 3.89 1.72 2.59 2.58 4.32 3.87 6.916.86 1.3 1.72 2.16 1.72 3.89 0 2.594-3.01 2.594-4.73 4.324-1.72 2.153-3.01 3.45-5.16 4.75-1.294.863-3.016 1.3-3.016 3.03v.86c.43 3.022 2.58 3.454 4.73 6.05.86.863 1.72 1.3 2.58 2.16.857 1.3 1.29 3.03 3.01 3.46h.86c1.72.43 2.15 1.73 3.87 2.592 1.72.86 3.44.86 5.16 1.72 2.588.86 3.88 1.73 6.03 1.73 1.72 0 2.58-1.3 3.87-1.3.86 0 1.29.864 1.72.864 1.727 0 3.017 0 4.74.86.43.43.43 1.3.86 2.16.43.43.86.43 1.72.43h.86c0 1.73 1.72 1.3 3.013 1.73 1.72.86 2.15 2.16 3.01 3.89.86 1.73 2.58 1.73 4.3 2.6 1.29.86 1.72 2.16 2.15 3.89.43 1.29.86 1.73 1.72 3.02.43 1.3.86 2.59 2.15 3.03 1.29.43 2.584-.437 4.3 0 2.155.43 3.445 1.292 6.03 1.292h9.46c.43 0 .86 0 1.295.44-1.29 1.73-3.44.43-5.59.87-.86.43-.86 1.298-1.29 1.73-1.29 1.297-2.15 1.73-3.87 3.02 1.72 1.73 2.58 3.03 4.3 4.76.86.866.86 2.16 2.15 2.59 3.01 1.3 5.16.867 8.17 2.597 3.87 2.16 5.17 4.75 9.04 6.48 3.01.87 5.16.43 7.31 2.6 1.72-2.59 3.44-3.89 6.02-5.62 1.728-.86 2.588-2.16 4.31-2.16h1.72c.86 0 1.72-.43 2.58-1.3 1.72-.43 3.015-.43 4.73-.86 1.726-.86 2.586-2.16 4.308-2.16h1.29c.86 0 1.29-1.29 1.72-2.16.86-1.3 1.29-1.73 2.15-3.03 1.72-2.59 3.87-2.59 6.02-4.75 2.15-1.73 3.87-2.6 4.73-5.19.86-3.03 4.3-3.03 4.3-6.05 0-.44-.43-.87-.86-.87-.86.87-1.29 1.3-2.588 2.16-.86-1.73-.86-2.59-1.29-4.32-.43-1.29-1.29-2.16-1.29-3.46 0-1.73.87-2.59.87-3.89v-1.73c-1.29 0-1.72-.43-2.58-.86-.43.87-.864 2.16-1.72 2.16-.86 0-.86-1.29-.86-2.16-.43-.86-.43-1.3-.865-2.16-1.72.86-1.72 3.03-3.87 3.03-1.72 0-1.72-3.02-3.01-4.32-1.72-1.29-3.01-1.73-4.305-3.46.43-1.3 1.29-1.73 1.29-3.46 0-3.02-3.01-4.32-3.01-7.78 0-.86 1.29-.86 1.29-1.73 0-3.03-4.74-2.16-5.16-4.76 0-1.73 1.29-3.46 0-4.32-.86-.43-1.73 0-2.59 0v-3.03c0-1.72.86-2.16 1.724-3.45.86-1.73 1.72-2.59 2.58-4.75.43-1.72.43-3.02 1.72-4.32 1.29-.86 3.01-1.3 3.01-2.59 0-1.73-1.3-2.59-2.16-3.89-.86-2.16-.86-3.46-1.29-6.05-.43.43-.86 1.3-1.72 1.3-1.29 0-1.72-2.59-3.44-2.59-.43 0-.86.43-.86.87v-1.3c0-.86.43-1.29.43-2.59 0-3.02-1.29-4.75-1.73-7.78 0-3.02 0-5.19-2.15-7.78-.86-.86-2.15-.86-3.01-1.73-1.29-.87-1.72-1.73-3.45-1.73-2.15 0-1.72 3.45-2.15 6.05v.43c0 .87.86 1.3.86 2.16 0 1.29-1.72 1.29-3.01 1.72-1.29.86-2.15 2.16-3.45 2.16-2.15 0-2.58-2.16-4.3-2.16-.86 0-.86 1.3-.86 1.73-.43 1.29-.86 1.73-1.29 3.02-.86-.43-1.29-.86-1.72-1.3-.43-1.29-.86-1.73-1.29-2.59-1.29.87-1.72 1.73-3.01 1.73-.43 0-.86-.43-.86-1.29 0-.43.43-.86.43-1.73v-.43H715c-.86 0-.86.87-1.72.87-.43 0-.86-.86-1.72-.86s-.43 1.73-1.29 1.73c-.86 0-.86-.86-1.72-1.3-2.15-1.29-3.44-2.16-4.31-4.32-.43-1.3 0-3.46-1.72-3.46-.86 0-1.72.87-2.584.87-.86 0-.86-1.29-1.72-1.29-2.15 0-3.01 1.29-5.59 1.29h-3.44c-2.58 0-3.87.43-6.45-.44-.43-.43-.86-.86-1.72-.86s-.86.43-1.72.43-1.72-.43-2.58-.43c-.86 0-1.29 1.3-2.15 1.3-.86 0-.86-1.3-1.72-1.3-.43 0-.86.43-1.29.43l-4.737 1.73h-1.72c-1.72 0-2.58-1.73-4.3-2.6-1.73-.43-3.02-.43-4.74-.43-2.15.86-2.15 2.59-4.3 3.45-3.01 2.16-5.17 3.03-9.04 3.89-2.59.87-3.88 1.3-6.46 1.73-1.72 0-3.45-.43-4.31.86-.86.87 0 1.73 0 3.03"/><path d="M795 165.487c-.49-.15-.995-.237-1.544-.237-2.152 0-2.582 2.172-4.734 2.172-.86 0-.86-1.302-1.29-2.172-.86-1.302-2.15-1.737-3.873-2.607-3.02-1.302-3.45-3.91-6.03-5.647s-3.87-2.172-6.46-3.474c-3.01-1.737-4.31-3.91-7.75-3.91-.86 0-1.29.87-2.15.87-1.29.436-2.58.436-2.58 1.738s1.72 1.737 1.72 3.474c0 .435-.43.435-.43.87v2.17c0 1.304 0 2.172.43 3.476-1.72-1.304-1.29-3.042-3.01-3.91v3.04c0 .87-.87 1.303-.87 2.608-.43.867 0 1.737-.86 2.172-.86-1.305-.86-2.607-.86-4.344 0-.87 1.29-2.608.43-2.608-.86 0-1.29.435-1.72.87.43 2.605.43 3.91 1.29 6.082.86 1.302 2.15 2.172 2.15 3.91 0 1.3-1.73 1.736-3.02 2.604-1.29 1.304-1.29 2.607-1.72 4.344-.87 2.172-1.73 3.04-2.58 4.78-.87 1.3-1.73 1.736-1.73 3.473v3.05c.86 0 1.72-.43 2.58 0 1.29.87 0 2.61 0 4.35.43 2.61 5.16 1.74 5.16 4.78 0 .87-1.29.87-1.29 1.74 0 3.48 3.01 4.78 3.01 7.82 0 1.74-.86 2.17-1.29 3.48 1.29 1.74 2.58 2.18 4.3 3.48 1.29 1.3 1.29 4.35 3.01 4.35 2.15 0 2.15-2.17 3.87-3.04.43.87.43 1.31.86 2.18 0 .87 0 2.17.86 2.17s1.29-1.3 1.72-2.17c.86.44 1.29.87 2.58.87V220c0 1.303-.86 2.173-.86 3.91 0 1.3.86 2.17 1.29 3.475.43 1.736.43 2.606 1.29 4.343 1.29-.87 1.72-1.305 2.58-2.17.43 0 .86.433.86.865 0 3.04-3.44 3.04-4.3 6.08-.86 2.607-2.58 3.475-4.74 5.214-2.15 2.17-4.3 2.17-6.02 4.78-.86 1.304-1.3 1.74-2.16 3.04-.43.87-.86 2.174-1.72 2.174h-1.29c-1.72 0-2.58 1.3-4.31 2.17-1.72.44-3.01.44-4.73.87-.86.87-1.72 1.3-2.58 1.3h-1.72c-1.72 0-2.58 1.31-4.3 2.18-2.58 1.74-4.3 3.04-6.02 5.65 1.72.87 1.72 2.61 3.44 3.91 5.16 3.04 8.61 3.48 13.34 6.95 6.45 3.91 10.75 5.65 18.07 5.65s11.19-1.74 18.5-1.74c1.29 0 3.44-.43 3.44.44 0 .43-.43.87-.43 1.3 0 1.74.43 2.61.43 4.78 0 1.3-.43 2.61.86 3.47.89 1.21 1.79 1.37 2.83 1.65v-124.8zm-391.198-7.497h.428c1.277 0 2.13-.433 3.408-.863.852 1.295 2.132 2.157 3.836 2.157 1.704 0 2.132-.862 3.836-.862.852 0 1.28.862 2.132.862h5.966c.426 0 .854-.432 1.706-.432 2.13 0 2.13 2.16 3.408 3.886 1.707 2.157 2.984 3.022 4.264 5.61.852 1.73.852 3.456 2.556 5.18.852.865 1.704.433 2.984.433.852 0 1.704.44 2.984 0 .852-.43.852-1.72 1.704-2.15h2.984c.427 1.3 0 2.16 0 3.89 0 1.3.852 2.59.852 3.89 0 3.89-2.557 6.05-6.392 6.91-2.984.43-3.412 3.45-4.264 6.48.428 0 .852 0 1.28-.43l8.95-.86 7.673 5.18c.852-2.59 2.556-3.45 5.113-3.88 1.707 0 2.56 0 3.836-.43.855 0 1.707.44 2.132-.43.427-.43 0-1.29 0-1.72 0-1.29-1.277-1.72-1.277-3.45 0-.86.86-.86.86-1.72v-1.3c0-1.29.85-1.29 1.28-2.15.43-1.3-.42-2.16.43-3.02.43-.87 1.28-.87 1.28-1.73s-.85-1.29-1.7-1.73c-1.7-2.16-2.98-2.16-5.11-3.02-1.28-.43-2.56-.43-2.56-1.72v-5.62c.86-1.3 1.71-1.73 2.56-3.02 0-2.16-.42-3.45-.85-5.18-.42-.87-1.27-1.3-2.55-1.3-.42 0-1.28.43-1.7.43-2.98 0-3.84-3.02-6.39-3.02h-2.14l-2.98.44h-2.13c-2.13 0-3.41-1.29-5.11-2.16-2.55-.86-4.26-1.72-5.11-4.31-.85-1.72-.85-3.02-1.28-4.74-.42-2.59-.42-4.32-1.7-6.47-.85-.86-1.7-1.3-2.13-2.16-.85-.86-.85-1.73-1.28-3.02-.85-1.73-2.13-2.59-3.41-4.31-.85-.86-1.7-.86-2.98-.86h-1.7c-2.98 0-4.26.87-7.25 1.73-.42-2.15-.42-3.45-1.27-5.61 0-.86-.85-1.29-.85-2.16 0-.86.43-1.29.43-1.72h-5.97c-4.69.86-7.24 1.72-11.93 1.72h-3.41c-2.13 0-3.84-.43-5.97.44-1.28.43-1.28 2.16-2.55 2.16h-1.28c.85 3.02 1.28 5.61 4.26 7.34.85.86 1.71 1.73 2.98 1.73.43 0 .86-.43 1.28-.43h3.41c.85 0 .85.43 1.28.86.85.86 1.71 1.29 1.71 2.59 0 3.45-1.28 5.18-1.28 8.63 0 3.89.43 7.34 3.84 9.5 3.41 2.16 7.67 1.72 8.95 6.04"/><path d="M422.556 125.545c2.144-.418 2.572-1.255 4.29-2.09.856 2.09 3 3.344 5.142 3.344 1.287 0 1.717-.84 3-.84h2.575c.428 0 .428-.42.858-.84.86-.42 1.29-.42 2.58-.42h2.58c-.43-1.67-.86-2.51-.86-3.76 0-.84.86-.84 1.29-1.26.86-.84 1.29-1.67 2.15-2.51 3.43-.84 5.15-1.26 8.58-1.26 2.58 0 3.86.83 6.44.83l8.15-.84h2.15c2.57 0 3.86.83 6.43.83h3c2.14 0 2.57-2.51 2.57-4.6 0-.84-.43-.84-.86-1.67.86-.84 1.29-1.67 2.58-1.67 3.43 0 4.72 1.25 7.72 2.92 1.72.42 2.58 1.25 4.29 2.09 1.29.42 3.43 0 3.43 1.25 0 .84-.85 1.67-1.71 1.67-.43 0-.43-.42-.86-.42h-1.72c0 .42-.42.42-.42.83 0 2.51 2.15 3.34 3.43 5.43 1.72 2.51 3.86 2.92 6 5.01 1.72 2.09 3.43 2.93 5.58 4.6 1.72 1.67 1.72 4.6 4.29 4.6.43 0 .86-.84 1.72-.84 1.72 0 2.57 1.67 4.29 2.09 3.44.84 5.58 1.25 9.01 2.09 1.29.83 2.15.83 3.86.83h3.44l2.15.42h2.14c1.71 0 2.57 1.25 3.43 2.92-3.43 2.09-6.43 2.09-10.29 3.77-.86.41-1.29.83-2.57 1.67-2.14 1.25-3.86 2.09-6.43 3.76-.86.42-1.71 0-2.57.42-.86.42-1.28 1.25-2.14 1.67h-11.6c-.86 0-1.29.42-1.71.42h-2.15c-1.71 0-3-.84-4.71-2.51-.43-.84-.85-1.67-2.14-1.67-.86 0-1.29 1.25-2.57 1.67-2.14 1.25-3.43 2.5-6 2.5-3 0-4.29-2.09-7.29-3.76-2.14-1.25-3.86-.84-6.43-.84-1.71 0-2.14 2.09-3.43 3.34-1.28-1.25-1.71-2.51-3.43-3.34l-9 3.76c-.43-.84-1.28-1.26-2.57-1.26-.43 0-1.28.42-1.71.42-3 0-3.86-2.92-6.43-2.92h-2.14l-3 .42h-2.14c-2.14 0-3.43-1.26-5.14-2.09-2.57-.84-4.29-1.67-5.15-4.18-.86-1.67-.86-2.93-1.29-4.6-.42-2.51-.42-4.18-1.71-6.27-.85-.84-1.71-1.26-2.14-2.09-.85-.84-.85-1.67-1.28-2.93-.86-1.67-2.15-2.51-3.43-4.18"/><path d="M427.28 123.04c0-.37 0-.74-.423-1.11 2.107-.74 3.79.37 5.472-.74 1.26-1.48.84-2.962.84-4.813 2.1 0 2.95-1.11 4.63-1.11 1.26 0 2.1.74 2.95 1.11 2.1.74 3.36.37 5.47 1.112-.84.73-1.27 1.48-2.11 2.22-.42.37-1.26.37-1.26 1.11 0 1.11.42 1.85.84 3.33h-2.53c-1.27 0-1.69 0-2.53.37-.42.37-.42.74-.85.74h-2.52c-1.27 0-1.69.74-2.95.74-2.1 0-4.21-1.11-5.05-2.96"/><path d="M425.998 122.918c0-.44 0-.88-.43-1.32 2.152-.882 3.872.44 5.594-.882 1.29-1.76.86-3.523.86-5.722 2.15 0 3.01-1.323 4.733-1.323 1.29 0 2.152.88 3.012 1.33 2.152.88 3.44.44 5.593 1.32 3.444-.88 5.164-1.32 8.608-1.32 2.58 0 3.87.88 6.453.88l8.18-.88h2.15c2.58 0 3.87.88 6.46.88h3.01c2.15 0 2.58-2.64 2.58-4.84 0-.88-.43-.88-.86-1.76-.43 1.32-1.29 2.2-2.58 2.2-2.15 0-3.01-1.76-5.16-1.76h-7.31c-2.58 0-3.44-.88-6.02-.88-4.3 0-6.88 2.2-11.18 2.2-1.29 0-2.15-1.32-3.44-1.32-3.01 0-4.3 1.76-7.31 1.76h-.86l-3.87-.88c-2.58.44-3.87 1.76-6.02 2.64-4.3 1.77-6.88 2.65-11.18 2.65h-2.15l-6.88.44c0 .44-.43.88-.43 1.76 0 .89.86 1.33.86 2.21.86 2.2.86 3.52 1.29 5.73 3.01-.88 4.3-1.76 7.31-1.76h1.72c1.29 0 2.15 0 3.01.89 2.15-.44 2.58-1.32 4.31-2.2m207.21 27.55c0-1.29-.86-2.15 0-3 .85-1.29 2.56-.86 4.27-.86 2.56-.43 3.84-.86 6.41-1.71 3.84-.86 5.98-1.71 8.97-3.86 2.13-.86 2.13-2.58 4.27-3.44 1.71 0 2.99 0 4.7.43 1.71.86 2.57 2.58 4.27 2.58h1.71l4.7-1.72c.43 0 .86-.43 1.28-.43.86 0 .86 1.29 1.71 1.29s1.28-1.29 2.14-1.29c.86 0 1.71.43 2.56.43.86 0 .86-.43 1.71-.43.86 0 1.29.43 1.71.86 2.57.86 3.85.43 6.41.43h3.42c2.56 0 3.41-1.28 5.55-1.28.86 0 .86 1.29 1.71 1.29s1.71-.86 2.56-.86c1.71 0 1.28 2.15 1.71 3.44.86 2.15 2.14 3.01 4.27 4.3.86.43.86 1.29 1.71 1.29.86 0 .43-1.71 1.28-1.71s1.28.86 1.71.86c.86 0 .86-.86 1.71-.86h.85v.43c0 .86-.43 1.29-.43 1.72 0 .86.43 1.28.86 1.28 1.28 0 1.71-.85 2.99-1.71.43.86.86 1.29 1.28 2.58.43.43.86.86 1.71 1.29.43-1.28.85-1.71 1.28-3 0-.43 0-1.72.85-1.72 1.71 0 2.14 2.15 4.27 2.15 1.28 0 2.13-1.29 3.41-2.15 1.29-.43 3-.43 3-1.71 0-.86-.85-1.29-.85-2.14v-.43c-1.28-.43-1.28-2.14-1.71-3.86-.43-1.29-.86-2.14-.86-3.86 0-2.57 1.71-3.86 1.71-6.44 0-3-2.56-4.29-5.12-6.44-1.71-1.28-2.14-2.57-4.28-3.86-1.71 2.58-.85 5.15-2.99 7.3h-.43c0-2.14 2.13-3 2.13-5.15 0-.43 0-1.29-.43-1.29-.85 0-1.28.86-1.7.86h-1.28c0-1.29-.42-1.72-.42-3.01 0-1.29 2.14-1.29 3.41-1.29 1.71-.43 2.57-1.29 4.28-1.72 2.99-.43 5.12-.86 8.54-.86 2.14 0 2.99 1.72 5.13 1.72.86 0 1.28-.86 2.14-.86 1.71 0 2.57.86 3.85.86 1.71 0 2.56-.86 4.27-.86.85 0 .43 2.58 1.71 2.58 1.71 0 2.56-1.29 3.42-2.57 1.28-1.29 1.71-2.15 2.56-3.44.86-1.29.86-3 2.14-3h2.14c1.71 0 2.57.43 3.85.43 3.42 0 5.13.43 8.54.43 2.57 0 4.28.43 6.84-1.29 2.14-1.29 2.57-2.57 3.85-4.72-.85 0-1.71.43-2.56.43h-3.42c-2.13 0-3.41.43-5.55.43h-2.99c-4.27 0-5.98 2.15-10.25 2.15-2.14 0-2.99-.86-5.13-.86h-4.71c-4.27 0-7.26-.86-11.11-2.15-2.56-.86-3.41-2.15-5.98-2.15h-2.13c-3.84 0-5.55 2.15-9.4 2.58l-9.4 1.72c-2.56 0-3.85-2.15-6.83-2.15-1.28 0-2.56.43-3.85 1.29-.86.43-1.28.86-2.14.86-1.71 0-2.56-.43-3.42-1.28-1.71.86-2.13 1.72-3.84 2.58-3.42 1.29-5.55 1.29-9.4 1.29h-2.99c-1.71 0-2.99 0-4.7.86s-2.13 1.72-3.84 1.72H670c-2.14 0-2.99-.86-5.13-1.29-4.28-.43-7.69-.43-10.68-3.43-1.29 1.72-2.14 3.01-4.27 3.87-.86.86-1.71 1.29-2.57 1.29-1.71 0-2.567-.43-4.27-.86h-2.57c-.855-.43-1.28-1.712-2.14-1.712s-1.28.86-2.13 1.29c-1.284.86-2.14.86-3.42.86-3.845 0-5.98-.43-9.4-2.15-.427.858-.427 1.288-.427 2.147 0 .86.857 1.29 1.285 2.57.85 1.72 1.28 3.44 1.28 5.58h.424c1.28 0 .856-1.71 1.71-2.57 1.28-.86 2.135-.86 3.84-1.29 2.14-.43 3.42 0 5.556-.86.43 0 .858-.85 1.285-.85 1.28 0 2.136.86 2.99.86 2.137.43 2.99-.43 4.7 0 1.28.43.85 1.72 1.71 2.57.425.43 1.28 0 1.707 0h4.27c2.99 0 3.85 3.44 6.837 3.44 1.71 0 2.56-.43 4.27-.43.43 0 .43.43.43.43-5.12 2.15-8.54 3.435-14.09 3.435-1.71 0-2.56-.86-4.7-.86-2.56 0-4.27 1.286-6.832 1.286s-3.84-1.29-5.98-2.15c-1.28-.86-1.71-1.72-2.99-1.72-2.13 0-1.704 4.29-3.84 4.29h-1.71c-2.56.425-4.27.425-5.98 2.57-.426.43-1.28.86-1.28 1.71 0 .43.43.43.43.86 0 3.01-2.99 3.438-5.98 4.728-1.71.43-2.99 1.72-4.7 2.15.43 2.57 2.137 3.86 3.847 6.01s2.99 3.01 5.554 4.29c4.7 2.58 7.69 4.73 13.24 4.73h2.99zm10.32-72.35h-.84c0 .41-.43.41-.43.41 0 .41.43.41.43.81 0 .81-1.27.81-2.11 1.22-.84.41-.84 1.62-1.26 2.43-.43 2.02-2.53 2.43-4.64 2.43-3.37 0-6.74-2.43-6.74-5.66 0-.41-.42-.81-.42-1.22-1.68 2.43-4.21 1.62-6.74 2.03-1.26.41-1.69 1.21-2.95 1.62-1.27 0-2.11.41-2.11 1.22 0 1.21-.84 1.62-1.69 2.43h1.26c.85 0 1.27.81 2.11 1.22 2.53.81 3.79 1.62 6.32 1.62 2.11 0 2.95-1.21 5.06-1.21 2.1 0 2.95 2.43 4.63 3.64 1.27.41 1.69.41 2.95.81.42.41.84 1.22 2.11 1.22 1.26 0 1.69-.81 2.95-1.21.84-.4 2.53-.81 2.11-2.02.84 0 1.68.4 2.52.4-.42.41-.84.41-.84 1.22 0 .4.85.81 1.69.81h.42c0-2.02.42-4.45 2.1-4.45 1.27 0 .84 1.62 2.11 1.62s0-2.02.85-2.83c.84-.81 2.52 0 2.52-1.21 0-.81-.84-1.21-.84-1.62-.84-2.83-2.1-4.04-2.95-6.47-.42-1.21-1.26-2.83-2.53-2.43-2.1 1.22-2.95 3.24-5.05 3.24M626.7 97.59v1.62c.42 0 .42.405.84.405s.847-.4 1.267-.4c.84 0 1.26-1.21 1.26-2.02 0-.407 0-1.216-.85-1.216-1.26-.4-2.1.81-2.522 1.62m17.27-.4c-1.69 0-2.95.81-2.95 2.02s1.687 1.21 2.95 1.21v.81c0 .81.84 1.21 1.68 1.21s1.268-.4 1.268-.81c0-.81-.42-1.22-.84-1.62-.42-1.22-.84-2.83-2.107-2.83M147.65 210.6c-.437.864-.87 1.3-1.74 1.73h-.435c1.305.866 1.737 1.73 3.042 2.598 1.737 1.298 3.04 1.73 4.776 3.03 1.303 1.298 3.04 1.298 4.345 3.03-1.74 1.73-3.042 1.73-5.214 3.03-.87.435-2.17 0-2.61.435-.433.864 0 1.297-.433 2.164-.87 2.16-3.04 3.03-5.64 3.03H142l-3.04.43h-1.737c-1.74 0-2.61 1.733-3.91 2.6-3.476 1.73-5.213 3.03-8.25 5.19-3.48 1.73-5.65 2.6-8.69 5.193-1.303.867-.87 2.164-2.17 3.464-1.305 0-1.74.433-3.04.433-2.174 0-3.04-2.168-5.214-2.168-1.74 0-2.61.86-4.35 1.73-1.31.86-2.61.86-3.91 2.16 1.74 1.73 2.6 3.46 4.78 3.46h2.17c1.3 0 2.6 0 3.91.43 1.73 1.29 1.3 3.46 1.3 5.19 0 3.46-2.61 4.32-3.91 7.35 1.3.43 1.3 1.73 1.3 2.59 0 1.3-1.31 1.73-1.74 3.03-2.17 3.03-3.91 4.33-4.78 7.36 4.78 1.3 8.25 3.46 9.99 8.22.43 1.73 2.6 1.3 4.78 1.3 1.3.43 2.17 1.3 3.47 1.73 1.3.43 3.04 0 3.04 1.3v2.16c0 1.73-.44 3.03-.44 4.76v2.59c0 .44-.44.87-.44 1.73 0 0-.44 0-.44.43 0 3.46 2.6 4.76 4.34 7.79 1.3 2.6 1.3 5.19 3.9 6.92.87-.87 1.3-1.73 2.17-2.6.87-.87 1.73-1.73 1.73-3.03 0-1.73-1.31-2.17-1.31-3.9 0-2.6 3.91-2.6 5.65-4.76 2.17-2.16 3.47-4.33 6.95-4.76 2.17-.87 2.17-3.03 4.34-4.33 3.47-2.16 5.21-3.46 8.25-6.49 2.17-2.17 3.04-3.46 4.34-6.49.43-1.3 1.3-1.73 1.3-3.47 0-2.59-3.04-3.89-3.04-6.49 0-1.3.86-1.73 1.3-3.03 1.73-3.03 2.6-4.33 4.34-7.36 1.3-2.16 2.17-3.03 3.04-5.19.87-1.3.87-2.17 1.3-3.46.44-.44.44-1.3.87-1.3 1.3 0 2.17.43 3.47.43 3.04 0 5.21-2.17 6.08-5.2v-3.47c0-1.73-.44-3.9 1.3-4.76 1.74-.86 3.47-.43 5.21-1.73 3.04-2.16 3.91-5.19 3.91-8.66-1.74-2.16-4.34-1.3-6.95-2.6-.43-.43-.87-1.3-1.3-1.73-1.3-.86-2.61-.43-3.48-1.73-1.3-1.3-2.17-2.6-2.17-4.33v-6.92c-2.17 1.73-3.04 3.89-6.08 3.89-1.74 0-2.61-1.3-4.35-2.6-2.17.43-3.04 1.73-4.35 3.46-.87.87-1.3 2.16-2.61 2.16-2.61 0-3.91-1.3-6.52-2.6-1.74-1.3-3.04-1.73-4.78-3.47"/><path d="M142.673 86.712c-.864.427-1.73.855-3.026 1.712-.865.855-1.73 2.14-3.025 2.14-1.297 0-1.297-2.567-2.594-2.567-1.73 0-2.594.854-4.324.854.865 1.72 2.162 1.72 3.892 2.14 0 2.14-1.73 3-1.73 5.14v.86c0 .43-.865.43-1.297.86-.44 0-.87.43-1.3.43h-3.46v2.57c0 1.29.86 2.14.86 3.42 0 .86-.87 1.29-.87 2.14 0 1.72 2.59 2.14 2.59 3.85 0 1.29-.87 1.72-1.73 2.57-.44.43-1.3.43-1.3.86 0 1.29 1.29 1.71 1.73 2.57 1.72 2.14 3.89 3.43 3.89 5.99v3.42c0 2.14 1.73 2.57 2.59 3.86 1.3 2.57 1.73 3.85 3.03 5.99.86 4.28 4.32 4.71 6.91 8.13 2.16 2.57 2.16 4.71 3.02 8.13 0 1.29 0 2.57.86 3.85.86 1.72 2.16 1.72 3.89 2.57.43.43.86.86 1.73 1.28 2.16 1.72 4.32 3.43 4.32 6.42 0 0-.44.43-.44.86 0 1.28 1.29 1.71 1.73 3 .86 1.71.43 2.57.43 4.71.43.43.43.86.43 1.29l-1.3 4.7h1.29c.86 0 1.73.43 2.59.43h7.35c.86 0 1.73.43 3.02.43 1.73 0 2.6-.86 4.33-2.14.87-.43 1.73-.43 2.16-1.29.87-1.28.87-2.14 1.3-2.99 1.73-2.57 2.59-3.85 4.76-5.99-.43-2.14-1.3-3.42-2.16-5.56-.44-.85-1.3-1.71-1.3-2.57 0-2.14.86-2.99 1.29-5.13l-.84-4.72c2.59-2.56 3.02-5.56 3.89-8.98l-.43-8.56c-.87-.43-1.73 0-2.6-.86-.87-.86-.43-1.71-.43-2.57v-2.57c0-3.85-3.02-6.42-6.91-6.42-2.59 0-3.89.42-6.05.42-3.02 0-3.89-2.99-5.62-5.56-.43-1.28-1.29-1.28-1.73-2.14-1.72-2.14-2.59-3.42-3.89-5.56-.86-1.71-2.16-2.14-2.59-4.28-.86-2.14.43-4.28-1.3-5.56-1.3-.43-2.59-.43-3.46-1.28-1.29-.85-1.29-2.14-2.16-3.42-.43-.86-1.29-.86-1.73-1.28-1.73-2.14-2.59-3.85-4.32-5.56m1.73 126.2c1.3.86 1.73 1.71 3.03 2.57 1.73 1.29 3.03 1.72 4.76 3 1.3 1.29 3.03 1.29 4.33 3-1.73 1.71-3.03 1.71-5.19 2.99-.87.43-2.16 0-2.6.43-.44.86 0 1.28-.44 2.14-.87 2.14-3.03 3-5.62 3h-1.73l-3.03.43h-1.73c-1.73 0-2.6 1.72-3.89 2.57-3.46 1.71-5.19 3-8.22 5.13-3.46 1.72-5.62 2.57-8.65 5.14-1.3.86-.87 2.14-2.16 3.42-1.3 0-1.73.43-3.03.43-2.16 0-3.02-2.14-5.19-2.14-1.73 0-2.59.86-4.32 1.71-1.3.86-2.6.86-3.89 2.14-1.73.43-3.89.43-4.76 2.14-1.3 3-.43 6.42-3.89 7.27-4.75 1.28-9.08 1.71-11.67 6.42-.87-1.28-1.3-1.71-1.3-3.42 0-.43.43-.43.43-1.29v-1.71c0-.85-.87-.85-1.3-1.28-.44-.86-.87-1.71-1.73-1.71-1.3 0-2.16.43-3.46.85 1.3.86 1.73 1.71 2.16 3-3.03 1.29-4.76 3.43-6.05 6.42-.44-.42-.87-.85-.87-1.28-1.3-1.28-1.73-2.14-3.03-2.99-2.16-2.99-3.46-4.7-6.05-7.27-2.6-1.71-4.33-2.57-6.06-5.56-2.16-3.85-2.16-6.42-3.46-10.27-1.3-5.13-2.16-8.13-2.6-13.26-.43-3.42-.43-5.56-2.16-8.56-.86-1.28-1.29-3-3.46-3H36.3c-.43 0-.43-.43-.86-.43-2.594 0-3.03 3.42-5.62 3.42-.87 0-1.73-.85-1.73-1.71v-2.14c0-2.56-1.295-3.85-2.59-6.42-.436-.85-.87-1.28-1.3-2.14 0-.42 0-1.28-.437-1.28-1.3 0-1.73 1.28-2.596 1.71-.87.86-1.73.43-2.6 1.29-.43.43-.864 1.28-1.294 1.28-.87 0-.87-.42-1.73-.42-1.73 0-1.73 3.43-3.46 3.43H9.53c-.865 0-1.298 1.29-2.592 1.29-1.73 0-2.595-1.28-4.757-1.28-.43 0-.86.43-1.3.43.44-2.57.87-3.85 2.17-5.99 1.3-.86 1.3-1.71 2.16-2.992.44-1.71.87-2.99 2.16-4.703 1.73-2.99 4.33-3.85 5.62-7.27.87-2.14.87-4.28 3.03-5.56.87-.43 2.16 0 2.59-.86.87-.86.87-1.71 1.3-3 .43-1.71 1.3-2.99 2.16-5.13 1.3-4.28 5.62-5.56 5.62-10.27 0-.86 0-1.71-.43-2.57-.86-.43-1.72-.43-1.72-1.28v-.86c3.46-7.7 3.03-12.834 6.49-20.96 0-2.14-.86-3.42-.86-5.99 0-5.56 2.17-8.13 4.33-13.26.87-2.14.87-3.42 2.16-5.56.87-1.283 1.3-2.14 2.6-3.42.87-.43 1.73-.86 2.16-1.714.44-.85.44-1.71.87-2.57 1.3-2.56 2.6-3.42 3.46-6.41.86-2.99.86-5.13 3.46-7.27 1.73-1.71 3.9-1.71 4.76-3.85.87-1.71 1.3-2.56 2.59-4.27.44-1.28.87-2.14 1.73-2.99.44-.43 1.3-.855 1.3-1.285v-2.6c2.16-2.14 4.33-2.57 7.78-3.42 1.3 0 2.16-.86 3.46-.86l4.76 2.14L96 39.235c3.89 0 6.05-1.29 9.51-2.14 5.188-1.72 8.214-2.14 13.4-3.85 5.19-2.14 9.08-1.29 14.267-3.85 3.03-1.29 4.326-2.57 6.918-4.28v.85c0 .42-.43.42-.864 1.28-.43.85-.43 1.71-1.29 2.14l-1.29 1.28c-.43.86-.86 1.71-1.73 1.71s-.43-.86-1.29-.86c-.44 0-.44.43-.44.43-.43.85-.86 1.71-1.29 2.14-1.3.85-2.16.85-3.03.85h-1.3c-1.29 0-2.16.42-3.89.42-2.16.43-3.46.43-6.05 1.28-1.72.42-2.59 1.28-4.32 1.28h-1.73c-.86 0-1.29 0-2.16.43-1.73.43-2.59 1.28-3.89 1.71-2.16 1.29-3.46 1.29-5.62 2.14-.86.43-2.16-.425-2.59.43-.86.43-.43 1.284-.86 2.14-.87 1.71-1.3 3-1.3 4.705 0 3.43 1.3 5.14 2.16 8.13.43 2.14.43 3.42 1.3 5.14 1.3 1.71 1.3 3 2.6 4.71 2.17 2.57 3.9 4.28 5.19 7.27 0 .85 0 1.28.43 1.28h.44c.87 0 .87.86 1.3.86.86 1.28 1.3 1.71 2.59 2.14 1.3.86 1.73 1.71 3.46 2.14 1.73.86 2.16 1.28 3.89 2.57.87.85 2.16.85 2.6 2.14h-.43c-3.46 0-5.19-3-8.65-3h-1.73c-1.29 0-1.29-1.28-2.15-1.71h-.43c0 .42.44.42.44.85 0 .85-1.3.85-1.3 1.71s.43.85.43 1.28c0 .43 0 .85.43.85h.87c1.29 0 1.73.85 3.02.85.87 0 .87-.43 1.73-.43v.42c-.86.86-.86 1.71-.86 2.99 0 .42.43.85.43 1.71.86 2.56 1.73 3.85 2.59 6.42.43 1.28 1.3 1.71 2.16 2.56.87 1.28 1.3 1.71 2.6 2.99.86.85 1.73.85 1.73 2.14 0 1.28-.44 2.14-1.3 2.99-.44 0-.44.43-.44.43v.86c0 .43-.43.86-.43 1.71 0 .86.44 1.29.44 2.14 0 2.14-1.73 3.42-1.73 5.56 0 1.28.43 1.71.43 2.56v1.28c0 .86-1.3.86-1.73 1.28-1.3.85-2.16.85-3.46 1.71-2.16 1.28-3.46 2.14-4.76 4.28-2.59 3.42-3.02 5.99-5.62 9.84-.43.43-.43.85-.86 1.28l-1.3 1.28c-.86 1.71-1.73 2.57-3.46 3.42-1.29.86-2.59 1.28-3.45 2.57-.86 1.28-.86 2.56-1.3 3.85-1.29 2.99-2.16 4.27-3.46 7.7-.86 1.28-1.29 1.71-2.16 2.99-.43.86-.43 1.29-1.29 2.57-.43.43-.86.86-.86 1.71 0 1.28 1.3 1.71 2.16 2.57.86.86 1.3 1.71 2.16 2.57.87 1.28 1.73 1.71 2.16 2.99.43 1.28 1.3 1.71 2.16 2.56 1.3 1.71 1.73 3 2.16 5.13.44.86.87 1.29.87 2.14 0 .43-.43.86-.86 1.29 0 .43 0 1.28-.44 1.28s-.43-.43-.86-.43-.86.43-.86 1.28v2.57l.87-.85c1.3-.86 2.17-1.28 2.17-2.14v-2.56c1.72 1.28 2.59 2.56 4.32 3.84 1.3.86 2.16.86 3.03 1.713.87.852 1.73 1.28 2.16 2.14 1.3 1.71 2.16 3.42 4.33 3.42h.86c.44 0 1.3 0 1.3.43 0 .86-.43 1.71-.43 2.57v1.28l-1.3 6.85c0 .85 0 1.28.43 2.14-.43.85-.43.85-.43 1.71 0 2.13.43 3.42 2.16 5.13.87.86 1.3 1.71 2.6 1.71h1.3l5.186-.85 2.16.43h4.76c2.59 0 4.32-.43 6.92-1.288 1.3-.43 1.73-.86 3.03-1.71 2.16-.86 3.46-1.29 5.19-2.57m11.24-11.13c-1.3.86-1.73 1.71-3.03 2.57-1.3.86-2.16.86-3.03 1.71-1.73 1.28-1.73 2.99-3.03 5.13 1.73 1.72 3.028 2.14 4.758 3.43 2.6 1.28 3.89 2.562 6.48 2.562 1.3 0 1.73-1.28 2.6-2.14 1.3-1.71 2.16-2.99 4.33-3.42 0-3.42-2.16-5.56-5.19-7.27-1.73-.85-2.59-.85-3.89-2.564"/></g></svg>